<svg xmlns="http://www.w3.org/2000/svg" viewBox="0 0 20 20"><title>кнопка позвонить</title><path d="M15.21,13.23a1.41,1.41,0,0,0-2.12,0l-1.48,1.48a.29.29,0,0,1-.41.08c-.32-.18-.66-.32-1-.51a15.43,15.43,0,0,1-3.7-3.37A8.86,8.86,0,0,1,5.2,8.78a.3.3,0,0,1,.08-.39L6.74,6.93a1.41,1.41,0,0,0,0-2.17L5.57,3.6c-.39-.4-.79-.81-1.19-1.2a1.41,1.41,0,0,0-2.12,0c-.5.49-1,1-1.49,1.48A2.4,2.4,0,0,0,0,5.51a7,7,0,0,0,.54,3,17.85,17.85,0,0,0,3.2,5.33,19.68,19.68,0,0,0,6.56,5.14,9.61,9.61,0,0,0,3.63,1,2.66,2.66,0,0,0,2.29-.87c.42-.47.9-.9,1.35-1.36a1.41,1.41,0,0,0,0-2.15Z"/><path d="M14.41,9.91,16,9.65A6.91,6.91,0,0,0,14,6,6.77,6.77,0,0,0,10.12,4L9.9,5.54a5.32,5.32,0,0,1,4.51,4.37Z"/><path d="M16.81,3.24A11.29,11.29,0,0,0,10.32,0L10.1,1.54a9.8,9.8,0,0,1,5.61,2.8,9.72,9.72,0,0,1,2.75,5.31L20,9.38A11.39,11.39,0,0,0,16.81,3.24Z"/></svg>