<svg xmlns="http://www.w3.org/2000/svg" viewBox="0 0 314.68 19.94"><title>логотип согинлюкс</title><path d="M50.75,9.14a3.07,3.07,0,0,0,0,.92h0c.19,1.14.46,2.68.94,2.76s1.49-1.63,1.84-3.34a3.43,3.43,0,0,0,0-1.21Z" transform="translate(0 -2.19)" fill="#674b3b"/><path d="M53.88,8l0-.19L50.43,8.85l0,.1a3.11,3.11,0,0,0,0,1.18l.18,0-.18,0c.26,1.51.51,2.94,1.25,3.06h.1c1,0,1.91-2.38,2.17-3.64A4.35,4.35,0,0,0,53.88,8Zm-2.15,4.84c-.48-.08-.75-1.62-.94-2.76h0a3.07,3.07,0,0,1,0-.92l2.8-.87a3.43,3.43,0,0,1,0,1.21C53.22,11.19,52.27,12.91,51.73,12.82Z" transform="translate(0 -2.19)" fill="#040000"/><path d="M4.57,8.21,3.32,7.08a10.07,10.07,0,0,1-.72-.73A6.16,6.16,0,0,0,1.47,5.29a1.79,1.79,0,0,0-.41-.06.63.63,0,0,0-.46.16C.27,5.72.29,6.26.69,7,1.21,8.09,2.3,8.77,4,9.75a21.77,21.77,0,0,0,3.8,1.78l.52-.4a20.19,20.19,0,0,1-3.21-2.4Z" transform="translate(0 -2.19)" fill="#987464"/><path d="M1.06,5.23a.63.63,0,0,0-.46.16C.27,5.72.29,6.26.69,7,1.21,8.09,2.3,8.77,4,9.75a21.77,21.77,0,0,0,3.8,1.78l.52-.4a20.19,20.19,0,0,1-3.21-2.4l-.58-.52L3.32,7.08a10.07,10.07,0,0,1-.72-.73A6.16,6.16,0,0,0,1.47,5.29a1.79,1.79,0,0,0-.41-.06Z" transform="translate(0 -2.19)" fill="#aa8374"/><path d="M8.78,10.93A18.3,18.3,0,0,1,5.39,8.45l-.57-.51c-.11-.11-.34-.31-1.25-1.13-.19-.18-.44-.44-.7-.72A4.8,4.8,0,0,0,1.58,4.94a1.24,1.24,0,0,0-1.23.18c-.47.45-.46,1.15,0,2.09.57,1.14,1.76,1.88,3.5,2.86a20.55,20.55,0,0,0,4,1.85l.09,0L9,11.07ZM4,9.75C2.3,8.77,1.21,8.09.69,7,.29,6.26.27,5.72.6,5.39a.63.63,0,0,1,.46-.16,1.79,1.79,0,0,1,.41.06A6.16,6.16,0,0,1,2.6,6.35a10.07,10.07,0,0,0,.72.73L4.57,8.21l.58.52a20.19,20.19,0,0,0,3.21,2.4l-.52.4A21.77,21.77,0,0,1,4,9.75Z" transform="translate(0 -2.19)" fill="#040000"/><path d="M8.07,14.78a1,1,0,0,1-1,.4c-1.14-.35-1.76-1-1.7-1.91S5.11,12.07,5,12H5a1.17,1.17,0,0,0-.42.2,5.6,5.6,0,0,1-1.11.56l-.58.2a2,2,0,0,0-.79.37,1.5,1.5,0,0,0-.6,1A1.79,1.79,0,0,0,2,15.64l0,0c.2.27.73,1,1.18.86.61-.18.72-.63.82-1.07s.17-.78.62-.87.6.25.88.64a2.55,2.55,0,0,0,2.35,1.3,4.21,4.21,0,0,0,1.21-1c-.19-.11-.47-.26-.58-.34A4.51,4.51,0,0,1,8.07,14.78Z" transform="translate(0 -2.19)" fill="#987464"/><path d="M5,12a1.17,1.17,0,0,0-.42.2,5.6,5.6,0,0,1-1.11.56l-.58.2a2,2,0,0,0-.79.37,1.5,1.5,0,0,0-.6,1A1.79,1.79,0,0,0,2,15.64l0,0c.18.25.64.88,1.07.88l.11,0c.61-.18.72-.63.82-1.07s.17-.78.62-.87h.1c.31,0,.53.3.78.65a2.58,2.58,0,0,0,2.16,1.3h.19a4.21,4.21,0,0,0,1.21-1c-.19-.11-.47-.26-.58-.34a4.51,4.51,0,0,1-.42-.38,1.13,1.13,0,0,1-.79.44.59.59,0,0,1-.21,0c-1.14-.35-1.76-1-1.7-1.91S5.11,12.07,5,12Z" transform="translate(0 -2.19)" fill="#aa8374"/><path d="M9.46,15.28c-.17-.09-.62-.33-.75-.42s-.42-.38-.53-.49L8,14.2l-.12.2s-.35.54-.71.43c-.56-.18-1.5-.61-1.43-1.53.09-1.19-.36-1.51-.56-1.6s-.5,0-.82.22a6.17,6.17,0,0,1-1,.52c-.23.09-.4.14-.56.19a2.23,2.23,0,0,0-.91.44,1.92,1.92,0,0,0-.74,1.24,2.14,2.14,0,0,0,.56,1.55l0,0c.24.32.76,1,1.38,1l.22,0a1.53,1.53,0,0,0,1.07-1.35c.09-.39.14-.55.33-.59s.32.23.51.5a2.87,2.87,0,0,0,2.68,1.45c.44,0,1.35-1,1.62-1.34l.16-.18Zm-4,0c-.28-.39-.52-.71-.88-.64s-.54.5-.62.87-.21.89-.82,1.07c-.45.14-1-.59-1.18-.86l0,0a1.79,1.79,0,0,1-.49-1.28,1.5,1.5,0,0,1,.6-1A2,2,0,0,1,2.88,13l.58-.2a5.6,5.6,0,0,0,1.11-.56A1.17,1.17,0,0,1,5,12H5c.07,0,.41.23.33,1.23s.56,1.56,1.7,1.91a1,1,0,0,0,1-.4,4.51,4.51,0,0,0,.42.38c.11.08.39.23.58.34a4.21,4.21,0,0,1-1.21,1A2.55,2.55,0,0,1,5.51,15.24Z" transform="translate(0 -2.19)" fill="#040000"/><path d="M13.94,18.48a3.91,3.91,0,0,1-.84-.05.52.52,0,0,1-.39-.3,2.61,2.61,0,0,1,.23-1.73l-.82-.11a4.72,4.72,0,0,1-.62,2.15l-.3.37c-.21.26-.65.78-.58.94s.11.19,1.07.35c.6.09,1.31.14,1.78.17l.43,0A1.42,1.42,0,0,0,15,19.8a1.31,1.31,0,0,0,.38-1.07C15.37,18.49,14.44,18.48,13.94,18.48Z" transform="translate(0 -2.19)" fill="#987464"/><path d="M12.12,16.29a4.72,4.72,0,0,1-.62,2.15l-.3.38c-.21.25-.65.77-.58.93s.11.19,1.07.35c.6.09,1.31.14,1.78.17l.43,0H14a1.44,1.44,0,0,0,1-.51,1.31,1.31,0,0,0,.38-1.07c-.05-.24-1-.25-1.48-.25a3.91,3.91,0,0,1-.84-.05.52.52,0,0,1-.39-.3,2.61,2.61,0,0,1,.23-1.73l-.82-.11Z" transform="translate(0 -2.19)" fill="#aa8374"/><path d="M15.78,18.67c-.1-.56-1-.56-1.84-.56a4.92,4.92,0,0,1-.76,0A.17.17,0,0,1,13,18c-.16-.32.13-1.18.34-1.65l.11-.23-1.73-.23v.21a4.68,4.68,0,0,1-.57,2.15c-.07.1-.17.23-.28.36-.39.46-.79,1-.63,1.31s1.31.63,3.17.76l.42,0H14a1.8,1.8,0,0,0,1.31-.62A1.66,1.66,0,0,0,15.78,18.67ZM13.9,20.31l-.43,0c-.47,0-1.18-.08-1.78-.17-1-.16-1.06-.33-1.07-.35s.37-.68.58-.94l.3-.37a4.72,4.72,0,0,0,.62-2.15l.82.11a2.61,2.61,0,0,0-.23,1.73.52.52,0,0,0,.39.3,3.91,3.91,0,0,0,.84.05c.5,0,1.43,0,1.48.25A1.31,1.31,0,0,1,15,19.8,1.42,1.42,0,0,1,13.9,20.31Z" transform="translate(0 -2.19)" fill="#040000"/><path d="M30.33,18.3l-1.23.15c-.48.06-1,.12-1.1.14a1.94,1.94,0,0,0-1.24,1.1c-.12.27-.11.46-.06.53a4.92,4.92,0,0,0,2.35,1.5,1.52,1.52,0,0,0,1.54-.48c.21-.34,0-.71-.33-1.09-.18-.21-.3-.37-.22-.54s.31-.26.67-.39a8.13,8.13,0,0,0,1.24-.5,8.54,8.54,0,0,0,2-2.1l-1.48.09A3.48,3.48,0,0,1,30.33,18.3Z" transform="translate(0 -2.19)" fill="#987464"/><path d="M34,16.62l-1.48.09a3.48,3.48,0,0,1-2.14,1.59l-1.23.15c-.48.06-1,.12-1.1.14a1.94,1.94,0,0,0-1.24,1.1c-.12.27-.11.46-.06.53a4.92,4.92,0,0,0,2.35,1.5,1.13,1.13,0,0,0,.35.05,1.41,1.41,0,0,0,1.19-.53c.21-.34,0-.71-.33-1.09-.18-.21-.3-.37-.22-.54s.31-.26.67-.39a8.13,8.13,0,0,0,1.24-.5,8.54,8.54,0,0,0,2-2.1Z" transform="translate(0 -2.19)" fill="#aa8374"/><path d="M42.61,16.85a1.91,1.91,0,0,0-1.4-.29,1.74,1.74,0,0,0-1.31,1.75c0,.26-.06.45-.24.49s-.19,0-1.55-1.37c-.51-.52-1-1.06-1.2-1.25l-1,.21c1.24,1.83,3.36,4.39,4.23,4a.48.48,0,0,0,.28-.26,1.8,1.8,0,0,1,.75-.66,2.48,2.48,0,0,1,1-.25,1.53,1.53,0,0,0,.78-.22c.35-.24.47-.66.35-1.32A1.34,1.34,0,0,0,42.61,16.85Z" transform="translate(0 -2.19)" fill="#987464"/><path d="M36.91,16.18l-1,.21c1.16,1.72,3.1,4.07,4,4.07a.49.49,0,0,0,.46-.29,1.8,1.8,0,0,1,.75-.66,2.48,2.48,0,0,1,1-.25,1.53,1.53,0,0,0,.78-.22c.35-.24.47-.66.35-1.32a1.34,1.34,0,0,0-.63-.87,2.07,2.07,0,0,0-1.08-.33,1.12,1.12,0,0,0-.32,0,1.74,1.74,0,0,0-1.31,1.75c0,.26-.06.45-.24.49h0c-.12,0-.31-.15-1.5-1.38-.51-.52-1-1.06-1.2-1.25Z" transform="translate(0 -2.19)" fill="#aa8374"/><path d="M51.63,4.59c-1.29.61-2.09,1.66-1.77,2.34a1.19,1.19,0,0,0,1.07.55,4,4,0,0,0,1.87-.41A4,4,0,0,0,54.3,5.9a1.18,1.18,0,0,0,.27-1.17C54.25,4,52.93,4,51.63,4.59Z" transform="translate(0 -2.19)" fill="#fffcd0"/><path d="M54.77,4.63c-.38-.81-1.8-.91-3.23-.24S49.28,6.22,49.66,7a1.4,1.4,0,0,0,1.26.67h.18a4.21,4.21,0,0,0,1.79-.44A4.05,4.05,0,0,0,54.48,6,1.38,1.38,0,0,0,54.77,4.63ZM50.93,7.48a1.19,1.19,0,0,1-1.07-.55c-.32-.68.48-1.73,1.77-2.34s2.62-.55,2.94.14A1.18,1.18,0,0,1,54.3,5.9a4,4,0,0,1-1.5,1.17A4,4,0,0,1,50.93,7.48Z" transform="translate(0 -2.19)"/><path d="M66.39,7l-15,0c-.23,0-2.52.59-3,1.59a2.45,2.45,0,0,0,.57,2.93c.4.23.77.08,1.43-.24a6.35,6.35,0,0,1,2.38-.7H53a4.57,4.57,0,0,1,1.94.49,19.77,19.77,0,0,0,2.56.9,16.83,16.83,0,0,0,5.12.81c1.63,0,3.85-.07,5.16-1.6a3.18,3.18,0,0,0,.81-2.66C68.4,7.76,67,7.15,66.39,7Z" transform="translate(0 -2.19)" fill="#987464"/><path d="M48.43,7.86a6.13,6.13,0,0,1,2.06-1,5.62,5.62,0,0,0-.75-2.18,5.54,5.54,0,0,0-1.69-1.87A2,2,0,0,0,47,2.42a1,1,0,0,0-.48.12A1.51,1.51,0,0,0,45.94,4a5.51,5.51,0,0,0,.77,2.4,7.4,7.4,0,0,0,.41.62l.12.15h0l.34-.23Z" transform="translate(0 -2.19)" fill="none"/><path d="M48.5,8.32A1.46,1.46,0,0,0,50,8.5a1.41,1.41,0,0,0,.56-1.28A4.65,4.65,0,0,0,48.5,8.32Z" transform="translate(0 -2.19)" fill="none"/><path d="M48.19,8.11l0,0,0,0Z" transform="translate(0 -2.19)" fill="none"/><path d="M66.39,7l-15,0-.61.16a1.64,1.64,0,0,1-.67,1.54,1.12,1.12,0,0,1-.6.16,2.17,2.17,0,0,1-1.09-.35.56.56,0,0,0,0,.08,2.45,2.45,0,0,0,.57,2.93c.4.23.77.08,1.43-.24a6.35,6.35,0,0,1,2.38-.7H53a4.57,4.57,0,0,1,1.94.49,19.77,19.77,0,0,0,2.56.9,16.83,16.83,0,0,0,5.12.81c1.63,0,3.85-.07,5.16-1.6a3.18,3.18,0,0,0,.81-2.66C68.4,7.76,67,7.15,66.39,7Z" transform="translate(0 -2.19)" fill="none"/><path d="M46.9,7.61l0,0Z" transform="translate(0 -2.19)" fill="#987464"/><path d="M47,7.57h0Z" transform="translate(0 -2.19)" fill="#987464"/><path d="M47,7.55l0,0Z" transform="translate(0 -2.19)" fill="#987464"/><path d="M46.84,7.65h0Z" transform="translate(0 -2.19)" fill="#987464"/><path d="M46.82,7.66h0Z" transform="translate(0 -2.19)" fill="#987464"/><path d="M46.87,7.64l0,0Z" transform="translate(0 -2.19)" fill="#987464"/><path d="M47.13,7.46h0Z" transform="translate(0 -2.19)" fill="#987464"/><path d="M47.35,7.32A6.11,6.11,0,0,0,48,8l.15.12,0,0,.2-.2-.85-.92-.34.23h0Z" transform="translate(0 -2.19)" fill="#987464"/><path d="M23.56,14.57c-3.54,0-6.07-.15-9.5-.44a28.34,28.34,0,0,1-3.29-.49c-.85-.28-1-.52-1-.53h0s.08-.12.14-.18a1.84,1.84,0,0,1,1.24-.34c17.42.22,26.77.37,27.05.37h.17l.48,0c-.27.14-.56.28-.89.42a13.39,13.39,0,0,1-3.93.89c-.46,0-.8.06-.93.06-3.95.18-7,.26-9.51.26Z" transform="translate(0 -2.19)" fill="#987464"/><path d="M47.17,7.44h0l-.1.07,0,0h0l0,0,0,0h0l0,0h0l-1.07.67-.16.1,0,0h0l-1.23.74-.09.06a9.85,9.85,0,0,1-4.31,1.61c-.46.05-.61.06-.83.07l-.86,0h0c-.09,0-9.46-.16-27-.38h-.06a3.74,3.74,0,0,0-2.78,1.05,2.4,2.4,0,0,0-.52,2c.22.8,1,1.4,2.31,1.85a28.06,28.06,0,0,0,3.76.59c3.3.27,6,.44,9.67.44,2.53,0,5.55-.08,9.6-.26.14,0,.53,0,1-.07a15.41,15.41,0,0,0,4.51-1,13.87,13.87,0,0,0,3-1.77,10.2,10.2,0,0,0,1.15-1c.36-.34.8-.78,1.82-1.62.82-.67,1.61-1.33,2.39-2l.77-.68a5.72,5.72,0,0,1-.69-.7Z" transform="translate(0 -2.19)" fill="#aa8374"/><path d="M48.23,8.06l.21-.18v0Z" transform="translate(0 -2.19)"/><path d="M46.84,7.65Z" transform="translate(0 -2.19)"/><path d="M46.86,7.64h0Z" transform="translate(0 -2.19)"/><path d="M47.35,7.32l-.2.13h0a5.72,5.72,0,0,0,.69.7l-.77.68L48,8A6.11,6.11,0,0,1,47.35,7.32Z" transform="translate(0 -2.19)"/><path d="M46.93,7.59l0,0Z" transform="translate(0 -2.19)"/><path d="M47,7.56h0Z" transform="translate(0 -2.19)"/><path d="M47,7.53l.1-.07Z" transform="translate(0 -2.19)"/><path d="M46.89,7.62h0Z" transform="translate(0 -2.19)"/><path d="M52.52,8.62A17.82,17.82,0,0,0,48.79,8a1.7,1.7,0,0,0-.47.54,2.45,2.45,0,0,0,.57,2.93c.4.23.77.07,1.43-.24a6.35,6.35,0,0,1,2.38-.7H53a4.57,4.57,0,0,1,1.94.49,20.07,20.07,0,0,0,2.56.89c.26.08.54.16.83.23C58.39,11,55.87,9.49,52.52,8.62Z" transform="translate(0 -2.19)" fill="#bba098"/><path d="M69,8.39c-.34-1.09-2.43-1.76-2.51-1.79h0l-15.13,0h0s-.25,0-.57.14a5.87,5.87,0,0,0-.78-2.22,5.7,5.7,0,0,0-1.76-1.95,1.74,1.74,0,0,0-1.78-.24A1.74,1.74,0,0,0,45.72,4a4.35,4.35,0,0,0,.22,1.19l-.2.19a18.08,18.08,0,0,0-3.47,4.47,8.22,8.22,0,0,1-2.39.63c-.45,0-.58,0-.81.06l-.86,0c-.33,0-9.68-.15-27-.37a4.07,4.07,0,0,0-3.13,1.19,2.74,2.74,0,0,0-.6,2.37c.25.93,1.08,1.61,2.55,2.1a27.16,27.16,0,0,0,3.85.61c3.31.27,6,.45,9.69.45,2.28,0,5-.07,8.43-.21a2.93,2.93,0,0,1-1.71,1.19l-1.23.15-1.14.15a2.31,2.31,0,0,0-1.5,1.32,1,1,0,0,0,0,.86A5.37,5.37,0,0,0,29,22.08a1.37,1.37,0,0,0,.44.06,1.78,1.78,0,0,0,1.52-.7c.37-.59-.09-1.17-.36-1.52a2.2,2.2,0,0,1-.14-.18,2.33,2.33,0,0,1,.42-.16,11.46,11.46,0,0,0,1.29-.52,10.25,10.25,0,0,0,2.32-2.47l1-.13a27.64,27.64,0,0,0,1.73,2.3c1.18,1.39,2.08,2.07,2.73,2.07a.78.78,0,0,0,.31-.06.85.85,0,0,0,.46-.4,1.4,1.4,0,0,1,.6-.53,2.26,2.26,0,0,1,.84-.21,1.88,1.88,0,0,0,1-.28,1.56,1.56,0,0,0,.51-1.7,1.71,1.71,0,0,0-.8-1.11,2.23,2.23,0,0,0-1.69-.34,2.11,2.11,0,0,0-1.59,2.06v0C39.13,18,38.2,17,37.33,16.07a12.47,12.47,0,0,0,1.52-.52A14.12,14.12,0,0,0,42,13.74l.46-.36a7.85,7.85,0,0,0,3,1.91l.41.18a.54.54,0,0,0,.19,0,.36.36,0,0,0,.2-.06c.38-.26.4-1.27.27-5.12,0-.16,0-.31,0-.47l.89-.77.58-.5a2.78,2.78,0,0,0,.8,3.24c.59.33,1.14.07,1.77-.23a5.94,5.94,0,0,1,2.24-.67,4,4,0,0,1,2.12.46,22.64,22.64,0,0,0,2.6.91,17.65,17.65,0,0,0,5,.83h.24c1.69,0,4-.07,5.43-1.73A3.52,3.52,0,0,0,69,8.39ZM45.75,5.9c0,.31.13.89.2,1.86l-.58.36h0l-.19.11-1,.65-.1.06a12.28,12.28,0,0,1-1.21.68A18,18,0,0,1,45.75,5.9Zm.32-.32a6.6,6.6,0,0,0,.45.93c.13.22.27.43.42.64l-.31.2-.32.19A15,15,0,0,0,46.07,5.58Zm-3.78,5.29a5.71,5.71,0,0,1,.26-.72,11.46,11.46,0,0,0,1.68-.9l.09-.06,1.23-.74h0l0,0,.16-.1L46,8.19c0,.43.05.94.08,1.52L44.7,10.83c-1,.84-1.46,1.28-1.82,1.62-.14.14-.26.26-.4.38A2.5,2.5,0,0,1,42.29,10.87ZM32,18.72a8.13,8.13,0,0,1-1.24.5c-.36.13-.58.2-.67.39s0,.33.22.54c.29.38.54.75.33,1.09a1.52,1.52,0,0,1-1.54.48,4.92,4.92,0,0,1-2.35-1.5c-.05-.07-.06-.26.06-.53A1.94,1.94,0,0,1,28,18.59c.07,0,.62-.08,1.1-.14l1.23-.15a3.54,3.54,0,0,0,2.14-1.58l.72,0c.11,0,.39,0,.75,0A8.6,8.6,0,0,1,32,18.72Zm6.16-1.29c1.36,1.41,1.42,1.4,1.55,1.37s.2-.23.24-.49a1.74,1.74,0,0,1,1.31-1.75,1.91,1.91,0,0,1,1.4.29,1.34,1.34,0,0,1,.63.87c.12.66,0,1.08-.35,1.32a1.53,1.53,0,0,1-.78.22,2.48,2.48,0,0,0-1,.25,1.8,1.8,0,0,0-.75.66.48.48,0,0,1-.28.26c-.87.35-3-2.2-4.23-4,.33-.06.67-.13,1-.22C37.1,16.38,37.61,16.91,38.11,17.43Zm3.62-4a13.87,13.87,0,0,1-3,1.77,13.47,13.47,0,0,1-1.77.58l-1.42.29c-.47.07-.87.11-1.2.15l-2,.12a123.34,123.34,0,0,1-18.45-.22,28.06,28.06,0,0,1-3.76-.59c-1.34-.45-2.09-1-2.31-1.85a2.4,2.4,0,0,1,.52-2,3.74,3.74,0,0,1,2.78-1.05h.06c17.56.22,26.93.37,27,.38h0l.86,0c.22,0,.37,0,.83-.07a9,9,0,0,0,2.15-.51c0,.14-.1.28-.14.43a2.81,2.81,0,0,0,.27,2.29Zm4.35-3.09c.07,2.26.15,4.59-.1,4.79h0l-.42-.19a7.33,7.33,0,0,1-2.84-1.79c.16-.14.29-.28.45-.43.35-.34.79-.77,1.8-1.6l1.13-.94Zm1-1.53-.67.58c0-.55-.05-1-.08-1.44l.48-.3h0l0,0h0l0,0,0,0h0l0,0,.1-.07h0l.2-.13-.11-.15h0L47.12,7a7.4,7.4,0,0,1-.41-.62A5.51,5.51,0,0,1,45.94,4a1.51,1.51,0,0,1,.57-1.46A1,1,0,0,1,47,2.42a2,2,0,0,1,1.06.36,5.54,5.54,0,0,1,1.69,1.87,5.62,5.62,0,0,1,.75,2.18,6.13,6.13,0,0,0-2.06,1v0l-.21.18,0,0h0L48,8Zm3.42-1.6A1.41,1.41,0,0,1,50,8.5a1.46,1.46,0,0,1-1.45-.18A4.65,4.65,0,0,1,50.51,7.22Zm17.31,3.94c-1.31,1.53-3.53,1.57-5.16,1.6A16.83,16.83,0,0,1,57.54,12a19.77,19.77,0,0,1-2.56-.9A4.57,4.57,0,0,0,53,10.56H52.7a6.35,6.35,0,0,0-2.38.7c-.66.32-1,.47-1.43.24a2.45,2.45,0,0,1-.57-2.93.56.56,0,0,1,0-.08,2.17,2.17,0,0,0,1.09.35,1.12,1.12,0,0,0,.6-.16,1.64,1.64,0,0,0,.67-1.54L51.34,7l15,0c.57.19,2,.8,2.24,1.54A3.18,3.18,0,0,1,67.82,11.16Z" transform="translate(0 -2.19)" fill="#040000"/><ellipse cx="68.31" cy="6.94" rx="2.95" ry="1.67" transform="translate(3.5 27.43) rotate(-25.09)"/><ellipse cx="68.8" cy="5.72" rx="0.69" ry="0.35" transform="matrix(1, -0.08, 0.08, 1, -0.24, 3.46)" fill="#fff" opacity="0.7"/><circle cx="51.67" cy="3.75" r="0.42"/><path d="M45.75,5.9c-.74.73-2.94,3-3.46,5-.63,2.37,1.51,3.31,3.24,4.07l.42.19h0c.25-.2.17-2.53.1-4.79A37.25,37.25,0,0,0,45.75,5.9Z" transform="translate(0 -2.19)" fill="#674b3b"/><path d="M50.51,7a5.31,5.31,0,0,0-.77-2.39,5.54,5.54,0,0,0-1.69-1.87A2,2,0,0,0,47,2.42a1,1,0,0,0-.48.12A1.51,1.51,0,0,0,45.94,4a5.51,5.51,0,0,0,.77,2.4,7.4,7.4,0,0,0,.41.62l.23.3A6.11,6.11,0,0,0,48,8l.31.23.06,0A1.52,1.52,0,0,0,50,8.5,1.52,1.52,0,0,0,50.51,7Z" transform="translate(0 -2.19)" fill="#fffcd0"/><circle cx="48.5" cy="4.77" r="0.46"/><path d="M20.69,14.45a63,63,0,0,0-11.24.82,5.51,5.51,0,0,0,.69.27,28.06,28.06,0,0,0,3.76.59,126.43,126.43,0,0,0,19.27.18c.14,0,.53,0,1-.07h.08C33.84,15.23,27.92,14.45,20.69,14.45Z" transform="translate(0 -2.19)" fill="#aa8374"/><path d="M97.27,3.8A7.91,7.91,0,0,1,99.6,5.19L97.7,7.46a6.52,6.52,0,0,0-1.49-.88,4.29,4.29,0,0,0-1.57-.29,3.11,3.11,0,0,0-2.7,1.44,8,8,0,0,0-1,4.45,7.81,7.81,0,0,0,1,4.39A3.17,3.17,0,0,0,94.69,18a3.91,3.91,0,0,0,1.69-.36,9.37,9.37,0,0,0,1.64-1l1.78,2.29a7.79,7.79,0,0,1-2.31,1.57,7.14,7.14,0,0,1-3,.61,7.78,7.78,0,0,1-4.08-1,6.81,6.81,0,0,1-2.7-3,11,11,0,0,1-1-4.85,10.61,10.61,0,0,1,1-4.76,7.09,7.09,0,0,1,2.74-3,7.64,7.64,0,0,1,4-1A7.94,7.94,0,0,1,97.27,3.8Z" transform="translate(0 -2.19)" fill="#997464"/><path d="M122.1,5.66a9.67,9.67,0,0,1,2,6.54A11.4,11.4,0,0,1,123.2,17,6.87,6.87,0,0,1,120.56,20a7.75,7.75,0,0,1-4.1,1.06,7.65,7.65,0,0,1-4.08-1.05,6.81,6.81,0,0,1-2.62-3,11.46,11.46,0,0,1-.92-4.81,11.35,11.35,0,0,1,.92-4.74,6.86,6.86,0,0,1,2.62-3.06,7.56,7.56,0,0,1,4.08-1.07A7.09,7.09,0,0,1,122.1,5.66Zm-8.21,2A9.09,9.09,0,0,0,113,12.2a9.14,9.14,0,0,0,.86,4.55,2.81,2.81,0,0,0,2.56,1.42,2.83,2.83,0,0,0,2.61-1.41,9.25,9.25,0,0,0,.84-4.56,9,9,0,0,0-.86-4.54,3.08,3.08,0,0,0-5.16,0Z" transform="translate(0 -2.19)" fill="#997464"/><path d="M145.88,3.75l-.44,3.15H139V20.68h-4V3.75Z" transform="translate(0 -2.19)" fill="#997464"/><path d="M169.07,20.68h-3.93V14.35a37.83,37.83,0,0,1,.56-6.67l-4.86,13H156V3.75H160V10.2a31.22,31.22,0,0,1-.15,3.37c-.1.9-.24,1.94-.44,3.13l5-12.95h4.74Z" transform="translate(0 -2.19)" fill="#997464"/><path d="M189.84,20.68V13.43h-5.08v7.25h-4V3.75h4V10.3h5.08V3.75h4V20.68Z" transform="translate(0 -2.19)" fill="#997464"/><path d="M205,14.53v-3h7.79v3Z" transform="translate(0 -2.19)" fill="#997464"/><path d="M236.14,3.75V20.68h-4V6.78h-3.52L228,12.52a27,27,0,0,1-.86,4.6,5.83,5.83,0,0,1-1.56,2.63,5.84,5.84,0,0,1-2.85,1.35l-1-2.81a2.86,2.86,0,0,0,1.32-.95,4.51,4.51,0,0,0,.66-1.65c.15-.7.31-1.82.49-3.36l1-8.58Z" transform="translate(0 -2.19)" fill="#997464"/><path d="M266.23,5.66a9.87,9.87,0,0,1,1.95,6.54,11.92,11.92,0,0,1-.87,4.77A6.66,6.66,0,0,1,264.78,20a7.3,7.3,0,0,1-4,1.06,6.52,6.52,0,0,1-5.06-2,9.21,9.21,0,0,1-2.13-5.63h-1.78v7.2h-4V3.75h4v6.6h1.86A9.19,9.19,0,0,1,256,5.14a6.49,6.49,0,0,1,4.82-1.81A6.68,6.68,0,0,1,266.23,5.66Zm-3,11.1A9.86,9.86,0,0,0,264,12.2a9.81,9.81,0,0,0-.79-4.53,2.77,2.77,0,0,0-4.82,0,9.84,9.84,0,0,0-.79,4.57,9.57,9.57,0,0,0,.8,4.51,2.76,2.76,0,0,0,4.82,0Z" transform="translate(0 -2.19)" fill="#997464"/><path d="M292.42,3.75l-4.18,7.67,4.64,9.26h-4.37l-3.64-7.35h-1.76v7.35h-4V3.75h4V10.4H285l3.52-6.65Z" transform="translate(0 -2.19)" fill="#997464"/><path d="M312.15,3.8a7.91,7.91,0,0,1,2.33,1.39l-1.9,2.27a6.57,6.57,0,0,0-1.5-.88,4.24,4.24,0,0,0-1.56-.29,3.11,3.11,0,0,0-2.7,1.44,8,8,0,0,0-1,4.45,7.81,7.81,0,0,0,1,4.39A3.17,3.17,0,0,0,309.57,18a3.91,3.91,0,0,0,1.69-.36,9,9,0,0,0,1.63-1l1.79,2.29a7.79,7.79,0,0,1-2.31,1.57,7.18,7.18,0,0,1-3,.61,7.83,7.83,0,0,1-4.08-1,6.93,6.93,0,0,1-2.7-3,11.19,11.19,0,0,1-1-4.85,10.61,10.61,0,0,1,1-4.76,7.13,7.13,0,0,1,2.73-3,7.67,7.67,0,0,1,4-1A8,8,0,0,1,312.15,3.8Z" transform="translate(0 -2.19)" fill="#997464"/></svg>