<svg xmlns="http://www.w3.org/2000/svg" viewBox="0 0 226.25 65.28"><defs><style>.cls-1{fill:#674b3b;}.cls-2{fill:#040000;}.cls-3{fill:#987464;}.cls-4{fill:#aa8374;}.cls-5{fill:#fffcd0;}.cls-6{fill:none;}.cls-7{fill:#bba098;}.cls-8{fill:#fff;opacity:0.7;}</style></defs><title>логотип СОГИНЛ_ЛЮКС</title><g id="Слой_2" data-name="Слой 2"><g id="Слой_1-2" data-name="Слой 1"><path class="cls-1" d="M146.38,13.19a5.85,5.85,0,0,0,.07,1.76h0c.37,2.14.88,5.08,1.8,5.24s2.82-3.1,3.5-6.35a7,7,0,0,0,0-2.31Z"/><path class="cls-2" d="M152.33,11l-.08-.37-6.47,2-.05.18a5.53,5.53,0,0,0,0,2.25l.34-.06-.34.06c.49,2.87,1,5.58,2.38,5.82h.19c1.87,0,3.61-4.51,4.11-6.92A8.13,8.13,0,0,0,152.33,11Zm-4.08,9.2c-.92-.16-1.43-3.1-1.8-5.24h0a5.85,5.85,0,0,1-.07-1.76l5.33-1.66a7,7,0,0,1,0,2.31C151.07,17.09,149.27,20.36,148.25,20.19Z"/><path class="cls-3" d="M58.69,11.43,56.31,9.28c-.39-.34-.87-.85-1.37-1.39a10.72,10.72,0,0,0-2.15-2A2.64,2.64,0,0,0,52,5.76a1.22,1.22,0,0,0-.87.31c-.64.62-.59,1.65.16,3.14,1,2,3.07,3.27,6.36,5.14a41.22,41.22,0,0,0,7.21,3.38l1-.77a38,38,0,0,1-6.1-4.55Z"/><path class="cls-4" d="M52,6.33a2.25,2.25,0,0,1,.58.09,13.7,13.7,0,0,1,1.93,1.86c.51.55,1,1.06,1.4,1.43l2.38,2.14c.21.2.21.2,1.09,1A41.52,41.52,0,0,0,64.87,17l-.09.08A44.38,44.38,0,0,1,58,13.86C54.75,12,52.74,10.8,51.82,9q-.93-1.85-.27-2.49A.69.69,0,0,1,52,6.33m0-.57a1.22,1.22,0,0,0-.87.31c-.64.62-.59,1.65.16,3.14,1,2,3.07,3.27,6.36,5.14a41.22,41.22,0,0,0,7.21,3.38l1-.77a38,38,0,0,1-6.1-4.55l-1.08-1L56.31,9.28c-.39-.34-.87-.85-1.37-1.39a10.72,10.72,0,0,0-2.15-2A2.64,2.64,0,0,0,52,5.76Z"/><path class="cls-2" d="M66.68,16.6a34.89,34.89,0,0,1-6.43-4.72l-1.09-1c-.21-.2-.65-.59-2.38-2.15-.37-.33-.83-.83-1.32-1.35A8.76,8.76,0,0,0,53,5.22a2.36,2.36,0,0,0-2.35.34c-.88.85-.88,2.19,0,4C51.76,11.69,54,13.09,57.32,15a39.64,39.64,0,0,0,7.54,3.5l.17.05,2.14-1.67Zm-9-2.25c-3.29-1.87-5.37-3.15-6.36-5.14-.75-1.49-.8-2.52-.16-3.14A1.22,1.22,0,0,1,52,5.76a2.64,2.64,0,0,1,.77.13,10.72,10.72,0,0,1,2.15,2c.5.54,1,1,1.37,1.39l2.38,2.15,1.08,1A38,38,0,0,0,65.87,17l-1,.77A41.22,41.22,0,0,1,57.67,14.35Z"/><path class="cls-3" d="M65.32,23.91a1.86,1.86,0,0,1-1.88.76c-2.18-.67-3.36-2-3.23-3.63.15-1.9-.51-2.28-.64-2.34l-.09,0a2,2,0,0,0-.8.39,12.1,12.1,0,0,1-2.1,1.06c-.46.17-.8.27-1.11.36a4,4,0,0,0-1.5.72,3,3,0,0,0-1.14,1.89,3.42,3.42,0,0,0,.93,2.44l.05.07c.38.52,1.39,1.9,2.26,1.64,1.16-.34,1.35-1.2,1.54-2s.34-1.48,1.18-1.65,1.15.48,1.69,1.21c.82,1.11,2,2.63,4.45,2.47a8.15,8.15,0,0,0,2.31-2,12.13,12.13,0,0,1-1.12-.65C65.93,24.48,65.57,24.15,65.32,23.91Z"/><path class="cls-4" d="M59.41,19.29A2.8,2.8,0,0,1,59.64,21c-.14,1.92,1.18,3.46,3.63,4.21a1.88,1.88,0,0,0,.57.09,2.31,2.31,0,0,0,1.49-.61c.2.18.35.31.46.39s.29.19.53.33a8.43,8.43,0,0,1-1.47,1.27h-.29a4.32,4.32,0,0,1-3.63-2.25C60.4,23.71,59.85,23,59,23a1.53,1.53,0,0,0-.3,0c-1.2.24-1.46,1.35-1.62,2.09s-.35,1.38-1.15,1.62h-.06c-.24,0-.71-.25-1.58-1.45l-.05-.07a2.84,2.84,0,0,1-.82-2,2.31,2.31,0,0,1,.92-1.51A3.27,3.27,0,0,1,55.64,21c.31-.1.66-.2,1.14-.38A12.33,12.33,0,0,0,59,19.55l.44-.26m.07-.61a2,2,0,0,0-.8.39,12.1,12.1,0,0,1-2.1,1.06c-.46.17-.8.27-1.11.36a4,4,0,0,0-1.5.72,3,3,0,0,0-1.14,1.89,3.42,3.42,0,0,0,.93,2.44l.05.07c.35.47,1.23,1.67,2,1.67a.83.83,0,0,0,.22,0c1.16-.34,1.35-1.2,1.54-2s.34-1.48,1.18-1.65l.19,0c.59,0,1,.57,1.5,1.23.78,1.05,1.83,2.48,4.08,2.48h.37a8.15,8.15,0,0,0,2.31-2,12.13,12.13,0,0,1-1.12-.65c-.19-.14-.55-.47-.8-.71a2.12,2.12,0,0,1-1.48.82,1.39,1.39,0,0,1-.4-.06c-2.18-.67-3.36-2-3.23-3.63.15-1.9-.51-2.28-.64-2.34l-.09,0Z"/><path class="cls-2" d="M68,24.85c-.31-.16-1.18-.62-1.43-.8a12.51,12.51,0,0,1-1-.93l-.32-.31-.24.37s-.66,1-1.34.81c-1.07-.33-2.86-1.15-2.72-2.89.17-2.26-.69-2.89-1.07-3.05s-.94.05-1.54.41a10.46,10.46,0,0,1-2,1c-.44.17-.77.27-1.06.36a4.46,4.46,0,0,0-1.73.83A3.61,3.61,0,0,0,52.13,23,4.1,4.1,0,0,0,53.19,26l.05.07c.45.61,1.44,2,2.6,2a1.65,1.65,0,0,0,.43-.06,2.89,2.89,0,0,0,2-2.56c.17-.74.27-1,.63-1.12s.6.43,1,.94c.86,1.17,2.18,2.95,5.07,2.76.84-.06,2.58-2,3.09-2.55l.3-.34Zm-7.49-.08c-.54-.73-1-1.35-1.69-1.21s-1,1-1.18,1.65-.38,1.7-1.54,2c-.87.26-1.88-1.12-2.26-1.64l-.05-.07a3.42,3.42,0,0,1-.93-2.44A3,3,0,0,1,54,21.21a4,4,0,0,1,1.5-.72c.31-.09.65-.19,1.11-.36a12.1,12.1,0,0,0,2.1-1.06,2,2,0,0,1,.8-.39l.09,0c.13.06.79.44.64,2.34-.13,1.64,1,3,3.23,3.63a1.86,1.86,0,0,0,1.88-.76c.25.24.61.57.8.71a12.13,12.13,0,0,0,1.12.65,8.15,8.15,0,0,1-2.31,2C62.43,27.4,61.3,25.88,60.48,24.77Z"/><path class="cls-3" d="M76.47,30.93a7.83,7.83,0,0,1-1.59-.09,1,1,0,0,1-.74-.57c-.43-.87.12-2.5.44-3.3L73,26.77a8.91,8.91,0,0,1-1.18,4.08l-.57.72c-.4.47-1.22,1.47-1.1,1.77,0,0,.21.37,2,.66,1.14.18,2.49.27,3.38.34l.81.06a2.68,2.68,0,0,0,2.16-1,2.46,2.46,0,0,0,.72-2C79.19,30.94,77.42,30.93,76.47,30.93Z"/><path class="cls-4" d="M73.53,27.4l.28,0a4.38,4.38,0,0,0-.18,3.08,1.61,1.61,0,0,0,1.12.88,10.31,10.31,0,0,0,1.72.1,8.91,8.91,0,0,1,2.27.17,2.06,2.06,0,0,1-.6,1.39,2.18,2.18,0,0,1-1.55.78h-.13l-.83-.06c-.88-.06-2.22-.15-3.33-.33a7.16,7.16,0,0,1-1.47-.35,9.25,9.25,0,0,1,.87-1.16c.22-.27.43-.52.6-.75a8.5,8.5,0,0,0,1.23-3.78M73,26.77a8.91,8.91,0,0,1-1.18,4.08l-.57.72c-.4.47-1.22,1.47-1.1,1.77,0,0,.21.37,2,.66,1.14.18,2.49.27,3.38.34l.81.06h.19a2.74,2.74,0,0,0,2-1,2.46,2.46,0,0,0,.72-2c-.09-.47-1.86-.48-2.81-.48a7.83,7.83,0,0,1-1.59-.09,1,1,0,0,1-.74-.57c-.43-.87.12-2.5.44-3.3L73,26.77Z"/><path class="cls-2" d="M80,31.28c-.2-1.05-2-1.05-3.51-1.06A8,8,0,0,1,75,30.15a.35.35,0,0,1-.26-.19c-.3-.61.24-2.25.64-3.13l.21-.44L72.34,26v.4a8.89,8.89,0,0,1-1.07,4.07c-.14.2-.34.44-.54.68-.74.89-1.49,1.81-1.2,2.5.37.87,2.49,1.19,6,1.43l.8.06.25,0a3.46,3.46,0,0,0,2.49-1.2A3.14,3.14,0,0,0,80,31.28ZM76.4,34.4l-.81-.06c-.89-.07-2.24-.16-3.38-.34-1.83-.29-2-.63-2-.66-.12-.3.7-1.3,1.1-1.77l.57-.72A8.91,8.91,0,0,0,73,26.77l1.56.2c-.32.8-.87,2.43-.44,3.3a1,1,0,0,0,.74.57,7.83,7.83,0,0,0,1.59.09c1,0,2.72,0,2.81.48a2.46,2.46,0,0,1-.72,2A2.68,2.68,0,0,1,76.4,34.4Z"/><path class="cls-3" d="M107.6,30.58l-2.34.29c-.91.11-2,.24-2.08.27a3.68,3.68,0,0,0-2.36,2.09,1.27,1.27,0,0,0-.12,1,9.55,9.55,0,0,0,4.47,2.86,2.93,2.93,0,0,0,2.93-.92c.4-.64-.07-1.34-.64-2.06-.32-.42-.56-.72-.4-1s.58-.51,1.26-.74a17.64,17.64,0,0,0,2.37-1c1.16-.57,3-2.88,3.8-4l-2.83.18C111.26,28.19,109.73,30.29,107.6,30.58Z"/><path class="cls-4" d="M113.28,28.05a11.76,11.76,0,0,1-2.84,2.83,18.63,18.63,0,0,1-2.3.93c-.76.25-1.32.44-1.6,1s.11,1.16.48,1.63c.61.78.77,1.15.6,1.41a2.21,2.21,0,0,1-1.79.73,2.27,2.27,0,0,1-.5-.05A9.28,9.28,0,0,1,101.22,34a1.22,1.22,0,0,1,.12-.53,3.19,3.19,0,0,1,2-1.76l2-.26-.07-.56.07.56,2.35-.29c2.13-.28,3.68-2.15,4.3-3l1.3-.08m1.21-.65-2.83.18c-.4.61-1.93,2.71-4.06,3l-2.34.29c-.91.11-2,.24-2.08.27a3.68,3.68,0,0,0-2.36,2.09,1.27,1.27,0,0,0-.12,1,9.55,9.55,0,0,0,4.47,2.86,2.48,2.48,0,0,0,.66.08,2.7,2.7,0,0,0,2.27-1c.4-.64-.07-1.34-.64-2.06-.32-.42-.56-.72-.4-1s.58-.51,1.26-.74a17.64,17.64,0,0,0,2.37-1c1.16-.57,3-2.88,3.8-4Z"/><path class="cls-3" d="M130.93,27.84a3.56,3.56,0,0,0-2.66-.56c-2.12.52-2.36,2.28-2.5,3.33-.06.49-.11.85-.45.92s-.35.08-2.93-2.59c-1-1-1.94-2-2.28-2.39l-2,.4c2.36,3.5,6.39,8.35,8,7.68a1,1,0,0,0,.53-.49,3.17,3.17,0,0,1,1.41-1.25,4.66,4.66,0,0,1,1.86-.48,2.87,2.87,0,0,0,1.47-.42c.67-.45.88-1.25.66-2.51A2.53,2.53,0,0,0,130.93,27.84Z"/><path class="cls-4" d="M119.91,27.17,122,29.34c2.47,2.55,2.78,2.77,3.24,2.77l.21,0c.74-.16.83-.85.9-1.41.14-1,.33-2.42,2.07-2.85a1.86,1.86,0,0,1,.48,0,3.4,3.4,0,0,1,1.74.53,2,2,0,0,1,.94,1.27c.24,1.31-.1,1.73-.42,1.94a2.39,2.39,0,0,1-1.21.33,5.13,5.13,0,0,0-2.06.53,3.77,3.77,0,0,0-1.63,1.45c-.14.22-.15.22-.27.27a.22.22,0,0,1-.12,0c-1.15,0-4-2.93-6.76-6.78l.82-.17m.2-.62-2,.4c2.21,3.27,5.89,7.74,7.71,7.74a1,1,0,0,0,.34-.06,1,1,0,0,0,.53-.49,3.17,3.17,0,0,1,1.41-1.25,4.66,4.66,0,0,1,1.86-.48,2.87,2.87,0,0,0,1.47-.42c.67-.45.88-1.25.66-2.51a2.53,2.53,0,0,0-1.19-1.64,3.82,3.82,0,0,0-2.05-.63,2.43,2.43,0,0,0-.61.07c-2.12.52-2.36,2.28-2.5,3.33-.06.49-.11.85-.45.92l-.1,0c-.22,0-.59-.29-2.83-2.61-1-1-1.94-2-2.28-2.39Z"/><path class="cls-5" d="M148.07,4.55C145.6,5.7,144.1,7.7,144.7,9a2.23,2.23,0,0,0,2,1,7.43,7.43,0,0,0,3.54-.77A7.68,7.68,0,0,0,153.14,7a2.27,2.27,0,0,0,.5-2.23C153,3.51,150.53,3.4,148.07,4.55Z"/><path d="M154,4.63c-.72-1.53-3.41-1.74-6.13-.47s-4.29,3.48-3.57,5a2.62,2.62,0,0,0,2.39,1.29h.34a8.19,8.19,0,0,0,3.4-.83,7.89,7.89,0,0,0,3-2.35A2.64,2.64,0,0,0,154,4.63ZM146.73,10a2.23,2.23,0,0,1-2-1c-.6-1.29.9-3.29,3.37-4.44s5-1,5.57.26a2.27,2.27,0,0,1-.5,2.23,7.68,7.68,0,0,1-2.87,2.22A7.43,7.43,0,0,1,146.73,10Z"/><path class="cls-3" d="M176.09,9.06l-28.59,0c-.43.1-4.78,1.12-5.72,3s-.39,4.76,1.08,5.58c.76.42,1.45.13,2.71-.46a12,12,0,0,1,4.51-1.33l.66,0a8.8,8.8,0,0,1,3.68.94,39.7,39.7,0,0,0,4.86,1.7A32.17,32.17,0,0,0,169,20.07c3.09-.06,7.33-.13,9.8-3,.38-.45,2.24-2.8,1.54-5.06C179.91,10.57,177.17,9.41,176.09,9.06Z"/><path class="cls-6" d="M142,10.77a11.58,11.58,0,0,1,3.92-2,10.62,10.62,0,0,0-1.43-4.14,10.41,10.41,0,0,0-3.21-3.54,3.87,3.87,0,0,0-2-.69,1.77,1.77,0,0,0-.92.23,2.85,2.85,0,0,0-1.07,2.77A10.12,10.12,0,0,0,138.72,8a11.1,11.1,0,0,0,.78,1.19l.21.28h0l.66-.43Z"/><path class="cls-6" d="M142.11,11.63a2.77,2.77,0,0,0,2.75.35,2.69,2.69,0,0,0,1.07-2.44A9.08,9.08,0,0,0,142.11,11.63Z"/><path class="cls-6" d="M141.52,11.24l.08-.09-.09.08Z"/><path class="cls-6" d="M176.09,9.06l-28.59,0c-.12,0-.56.13-1.14.31a3.12,3.12,0,0,1-1.29,2.93,2.21,2.21,0,0,1-1.14.3,4.15,4.15,0,0,1-2.07-.67,1.09,1.09,0,0,0-.08.15c-.94,1.89-.39,4.76,1.08,5.58.76.42,1.45.13,2.71-.46a12,12,0,0,1,4.51-1.33l.66,0a8.8,8.8,0,0,1,3.68.94,39.7,39.7,0,0,0,4.86,1.7A32.17,32.17,0,0,0,169,20.07c3.09-.06,7.33-.13,9.8-3,.38-.45,2.24-2.8,1.54-5.06C179.91,10.57,177.17,9.41,176.09,9.06Z"/><path class="cls-3" d="M139.08,10.29l.06,0Z"/><path class="cls-3" d="M139.2,10.21l0,0Z"/><path class="cls-3" d="M139.27,10.16l0,0Z"/><path class="cls-3" d="M139,10.36l0,0Z"/><path class="cls-3" d="M138.93,10.39l0,0Z"/><path class="cls-3" d="M139,10.34l.05,0Z"/><path class="cls-3" d="M139.52,10l0,0Z"/><path class="cls-3" d="M139.94,9.73A11,11,0,0,0,141.22,11l.29.22.09-.08a4.54,4.54,0,0,1,.38-.38L140.37,9l-.66.43h0Z"/><path class="cls-3" d="M139.58,10l0,0,0,0-.2.13,0,0,0,0,0,0-.06,0-.06,0h0l-.05,0h0l0,0h0l0,0-2.05,1.26-.3.18-.08.05h0l-2.32,1.41-.18.11a18.84,18.84,0,0,1-8.19,3.06c-.86.09-1.15.1-1.58.12s-.76,0-1.62.1h0c-.18,0-18-.29-51.32-.71h-.12c-1.17,0-3.78.21-5.27,2a4.49,4.49,0,0,0-1,3.86c.41,1.52,1.85,2.67,4.38,3.51a53.25,53.25,0,0,0,7.15,1.12c10.56.88,17.61,1.2,36.6.35.27,0,1,0,2-.14a28.92,28.92,0,0,0,8.55-2,25.41,25.41,0,0,0,5.74-3.36,17.53,17.53,0,0,0,2.18-1.86c.68-.66,1.53-1.49,3.47-3.09,1.55-1.27,3-2.52,4.53-3.82l1.47-1.29A10.38,10.38,0,0,1,139.58,10Z"/><path class="cls-4" d="M139,10.34l.32.47,0,0h0l.06,0h0c.18.2.37.4.56.58l-1,.87c-1.47,1.29-3,2.53-4.52,3.81-2,1.61-2.81,2.44-3.5,3.11a17.33,17.33,0,0,1-2.13,1.82,25.41,25.41,0,0,1-5.62,3.29,28.7,28.7,0,0,1-8.38,1.92c-1,.09-1.67.12-1.94.14-7.56.33-13.34.49-18.21.49-6.85,0-11.72-.3-18.31-.85a51.41,51.41,0,0,1-7-1.09c-2.34-.78-3.65-1.8-4-3.12a3.91,3.91,0,0,1,.88-3.35c1.36-1.62,3.84-1.8,4.84-1.8h.11c33.36.42,51.16.71,51.32.71h.08c.86-.06,1.27-.08,1.61-.09s.73,0,1.61-.12a19.55,19.55,0,0,0,8.44-3.15h0a.79.79,0,0,1,.16-.1l2.29-1.4,0,0,0,0,.41-.22,0,0,1.48-.91.51-.31,0,0h0l0,0-.31-.48m.58-.38,0,0,0,0-.2.13,0,0,0,0,0,0-.06,0-.06,0h0l-.05,0h0l0,0h0l0,0-2.05,1.26-.3.18-.08.05h0l-2.32,1.41-.18.11a18.84,18.84,0,0,1-8.19,3.06c-.86.09-1.15.1-1.58.12s-.76,0-1.62.1h0c-.18,0-18-.29-51.32-.71h-.12c-1.17,0-3.78.21-5.27,2a4.49,4.49,0,0,0-1,3.86c.41,1.52,1.85,2.67,4.38,3.51a53.25,53.25,0,0,0,7.15,1.12c6.28.52,11.32.85,18.36.85,4.8,0,10.54-.15,18.24-.5.27,0,1,0,2-.14a28.92,28.92,0,0,0,8.55-2,25.41,25.41,0,0,0,5.74-3.36,17.53,17.53,0,0,0,2.18-1.86c.68-.66,1.53-1.49,3.47-3.09,1.55-1.27,3-2.52,4.53-3.82l1.47-1.29A10.38,10.38,0,0,1,139.58,10Z"/><path d="M141.6,11.15l.4-.36,0,0A4.54,4.54,0,0,0,141.6,11.15Z"/><path d="M139,10.37h0Z"/><path d="M139,10.34h0Z"/><path d="M139.94,9.73l-.39.25,0,0a10.38,10.38,0,0,0,1.32,1.33l-1.47,1.29L141.22,11A11,11,0,0,1,139.94,9.73Z"/><path d="M139.14,10.25l.06,0Z"/><path d="M139.23,10.19l0,0Z"/><path d="M139.32,10.13l.2-.13Z"/><path d="M139.06,10.3h0Z"/><path class="cls-7" d="M149.75,12.2a33.05,33.05,0,0,0-7.09-1.09,3.07,3.07,0,0,0-.88,1c-.94,1.89-.39,4.76,1.08,5.58.76.42,1.45.13,2.71-.46a12,12,0,0,1,4.51-1.33l.66,0a8.66,8.66,0,0,1,3.68.94,39.7,39.7,0,0,0,4.86,1.7c.5.14,1,.29,1.59.43C160.9,16.8,156.1,13.85,149.75,12.2Z"/><path class="cls-2" d="M181,11.76c-.64-2.07-4.6-3.34-4.77-3.4h-.05l-28.74.05h-.07c-.06,0-.48.11-1.08.28a11.16,11.16,0,0,0-1.47-4.23A10.72,10.72,0,0,0,141.48.76a3.27,3.27,0,0,0-3.37-.47c-.89.52-1.34,1.64-1.28,3.16a8.68,8.68,0,0,0,.42,2.26l-.38.35c-.21.2-4.66,4.39-6.58,8.51a16.36,16.36,0,0,1-4.56,1.19,14.58,14.58,0,0,1-1.53.11l-1.63.1c-.62,0-18.38-.3-51.3-.71-1.21,0-4.2.17-6,2.25A5.24,5.24,0,0,0,64.19,22c.48,1.77,2.06,3.08,4.84,4a53.65,53.65,0,0,0,7.31,1.16c6.3.52,11.35.85,18.41.85,4.33,0,9.42-.13,16-.4a5.55,5.55,0,0,1-3.25,2.26l-2.33.29c-1.28.15-2,.24-2.18.28A4.41,4.41,0,0,0,100.17,33a1.85,1.85,0,0,0-.08,1.63A10.2,10.2,0,0,0,105,37.77a2.91,2.91,0,0,0,.85.1,3.37,3.37,0,0,0,2.87-1.32c.7-1.12-.16-2.22-.68-2.88a3.49,3.49,0,0,1-.26-.35,5.41,5.41,0,0,1,.79-.31A16.33,16.33,0,0,0,111,32c1.54-.75,3.9-4,4.41-4.68.56-.06,1.22-.13,2-.24a51.5,51.5,0,0,0,3.29,4.36c2.23,2.64,3.94,3.94,5.18,3.94a1.45,1.45,0,0,0,.59-.12,1.64,1.64,0,0,0,.86-.76,2.5,2.5,0,0,1,1.15-1,3.93,3.93,0,0,1,1.6-.4,3.52,3.52,0,0,0,1.79-.54c.93-.63,1.24-1.68,1-3.23a3.26,3.26,0,0,0-1.51-2.11,4.35,4.35,0,0,0-3.21-.65,4,4,0,0,0-3,3.92v.1c-.73-.67-2.5-2.49-4.16-4.25a26,26,0,0,0,2.88-1,26.4,26.4,0,0,0,5.89-3.45c.35-.25.63-.47.88-.68,1.4,1.76,3.79,2.81,5.63,3.62l.79.35a.8.8,0,0,0,.37.09.65.65,0,0,0,.37-.11c.73-.49.75-2.4.51-9.72l0-.89q.85-.72,1.71-1.47l1.09-.95c-.88,2.21-.17,5.21,1.53,6.16,1.11.62,2.15.13,3.36-.44a11.34,11.34,0,0,1,4.25-1.26,7.59,7.59,0,0,1,4,.86,41.24,41.24,0,0,0,4.93,1.72,33.4,33.4,0,0,0,9.49,1.58H169c3.22-.06,7.64-.14,10.32-3.3C179.77,17,181.83,14.38,181,11.76ZM136.89,7c.1.6.24,1.7.38,3.55l-1.1.67h0l-.36.21-2,1.22-.19.12a21.18,21.18,0,0,1-2.3,1.29A34.82,34.82,0,0,1,136.89,7Zm.61-.59a13.39,13.39,0,0,0,.85,1.75,11.45,11.45,0,0,0,.79,1.21l-.58.38-.61.38A28.93,28.93,0,0,0,137.5,6.44Zm-7.18,10a8.75,8.75,0,0,1,.5-1.37A21.92,21.92,0,0,0,134,13.4l.18-.11,2.32-1.41h0l.08-.05.3-.18.44-.27c.06.83.11,1.79.15,2.89-.84.71-1.7,1.42-2.57,2.13-1.94,1.6-2.79,2.43-3.47,3.09-.26.25-.49.48-.75.71A4.74,4.74,0,0,1,130.32,16.48ZM110.69,31.39a17.64,17.64,0,0,1-2.37,1c-.68.23-1.09.37-1.26.74s.08.61.4,1c.57.72,1,1.42.64,2.06a2.93,2.93,0,0,1-2.93.92,9.55,9.55,0,0,1-4.47-2.86,1.27,1.27,0,0,1,.12-1,3.68,3.68,0,0,1,2.36-2.09c.13,0,1.17-.16,2.08-.27l2.34-.29c2.13-.29,3.66-2.39,4.06-3l1.37-.06c.22,0,.74,0,1.44-.09C113.63,28.55,111.84,30.82,110.69,31.39Zm11.7-2.45c2.58,2.67,2.68,2.65,2.93,2.59s.39-.43.45-.92c.14-1.05.38-2.81,2.5-3.33a3.56,3.56,0,0,1,2.66.56,2.53,2.53,0,0,1,1.19,1.64c.22,1.26,0,2.06-.66,2.51a2.87,2.87,0,0,1-1.47.42,4.66,4.66,0,0,0-1.86.48,3.17,3.17,0,0,0-1.41,1.25,1,1,0,0,1-.53.49c-1.66.67-5.67-4.17-8-7.66.62-.1,1.27-.24,2-.41C120.47,26.94,121.42,28,122.39,28.94Zm6.86-7.59a25.41,25.41,0,0,1-5.74,3.36,24.73,24.73,0,0,1-3.35,1.11l-2.7.55c-.89.14-1.66.22-2.27.28l-3.74.23c-17.83.76-24.79.43-35-.42a53.25,53.25,0,0,1-7.15-1.12c-2.53-.84-4-2-4.38-3.51a4.49,4.49,0,0,1,1-3.86c1.49-1.79,4.1-2,5.27-2h.12c33.35.42,51.14.7,51.32.71h0c.86-.07,1.28-.08,1.62-.1s.72,0,1.58-.12a16.45,16.45,0,0,0,4.09-1c-.1.27-.19.55-.26.82a5.35,5.35,0,0,0,.5,4.36C129.89,20.87,129.6,21.09,129.25,21.35Zm8.26-5.85c.14,4.27.28,8.7-.19,9.09l0,0-.8-.36c-1.94-.85-4.16-1.83-5.39-3.41l.85-.81c.67-.65,1.5-1.46,3.42-3l2.15-1.79C137.51,15.27,137.51,15.38,137.51,15.5Zm1.92-2.92-1.27,1.1c0-1-.1-1.94-.15-2.72l.92-.57,0,0h0l0,0h0l.05,0h0l.06,0,.06,0,0,0,0,0,0,0,.2-.13,0,0,.39-.25-.22-.27h0l-.21-.28A11.1,11.1,0,0,1,138.72,8a10.12,10.12,0,0,1-1.46-4.55A2.85,2.85,0,0,1,138.33.66a1.77,1.77,0,0,1,.92-.23,3.87,3.87,0,0,1,2,.69,10.41,10.41,0,0,1,3.21,3.54A10.62,10.62,0,0,1,145.9,8.8a11.58,11.58,0,0,0-3.92,2l0,0-.4.36-.08.09h0l-.29-.22Zm6.5-3A2.69,2.69,0,0,1,144.86,12a2.77,2.77,0,0,1-2.75-.35A9.08,9.08,0,0,1,145.93,9.54ZM178.8,17c-2.47,2.91-6.71,3-9.8,3a32.17,32.17,0,0,1-9.72-1.55,39.7,39.7,0,0,1-4.86-1.7,8.8,8.8,0,0,0-3.68-.94l-.66,0a12,12,0,0,0-4.51,1.33c-1.26.59-1.95.88-2.71.46-1.47-.82-2-3.69-1.08-5.58a1.09,1.09,0,0,1,.08-.15,4.15,4.15,0,0,0,2.07.67,2.21,2.21,0,0,0,1.14-.3,3.12,3.12,0,0,0,1.29-2.93c.58-.18,1-.28,1.14-.31l28.59,0c1.08.35,3.82,1.51,4.25,2.91C181,14.23,179.18,16.58,178.8,17Z"/><ellipse cx="179.75" cy="9.02" rx="5.61" ry="3.18" transform="translate(13.14 77.08) rotate(-25.09)"/><ellipse class="cls-8" cx="180.66" cy="6.7" rx="1.32" ry="0.66" transform="translate(0.06 14.82) rotate(-4.7)"/><circle cx="148.13" cy="7.12" r="0.81"/><path class="cls-1" d="M136.89,7c-1.41,1.4-5.59,5.8-6.57,9.45-1.2,4.49,2.87,6.29,6.15,7.73l.8.36,0,0c.47-.39.33-4.82.19-9.09A69.59,69.59,0,0,0,136.89,7Z"/><path class="cls-5" d="M145.93,9.21a10.38,10.38,0,0,0-1.46-4.55,10.41,10.41,0,0,0-3.21-3.54,3.87,3.87,0,0,0-2-.69,1.77,1.77,0,0,0-.92.23,2.85,2.85,0,0,0-1.07,2.77A10.12,10.12,0,0,0,138.72,8a11.1,11.1,0,0,0,.78,1.19c.14.19.29.38.44.56A11,11,0,0,0,141.22,11c.2.15.39.3.59.43l.12.08a2.88,2.88,0,0,0,2.93.46A2.9,2.9,0,0,0,145.93,9.21Z"/><circle cx="142.11" cy="9.06" r="0.87"/><path class="cls-4" d="M89.29,23.27c-8.86,0-16.68.62-21.34,1.57.4.18.83.34,1.3.5a53.25,53.25,0,0,0,7.15,1.12c10.56.88,17.61,1.2,36.6.35.27,0,1,0,2-.14h.15C114.28,24.77,103,23.27,89.29,23.27Z"/><path class="cls-3" d="M10.33,48.29a7.87,7.87,0,0,1,2.29,1.37l-1.87,2.23A6,6,0,0,0,9.29,51a4.14,4.14,0,0,0-1.54-.29A3,3,0,0,0,5.1,52.16a7.78,7.78,0,0,0-1,4.36,7.61,7.61,0,0,0,1,4.31,3.1,3.1,0,0,0,2.7,1.41,3.92,3.92,0,0,0,1.66-.35,9.31,9.31,0,0,0,1.6-1l1.76,2.26a7.68,7.68,0,0,1-2.27,1.53,7.09,7.09,0,0,1-2.94.6,7.75,7.75,0,0,1-4-1,6.75,6.75,0,0,1-2.65-3A11,11,0,0,1,0,56.52a10.48,10.48,0,0,1,1-4.68,7,7,0,0,1,2.69-3,7.47,7.47,0,0,1,3.9-1A7.93,7.93,0,0,1,10.33,48.29Z"/><path class="cls-3" d="M35,50.12a9.5,9.5,0,0,1,2,6.43,11.16,11.16,0,0,1-.9,4.68,6.72,6.72,0,0,1-2.59,3,7.48,7.48,0,0,1-4,1,7.5,7.5,0,0,1-4-1,6.65,6.65,0,0,1-2.58-3,11.18,11.18,0,0,1-.9-4.71,11.13,11.13,0,0,1,.9-4.66,6.76,6.76,0,0,1,2.58-3,7.42,7.42,0,0,1,4-1A6.93,6.93,0,0,1,35,50.12Zm-8.06,2a8.91,8.91,0,0,0-.83,4.45A9,9,0,0,0,26.93,61,3,3,0,0,0,32,61a9,9,0,0,0,.83-4.47A8.93,8.93,0,0,0,32,52.08a2.78,2.78,0,0,0-2.54-1.36A2.74,2.74,0,0,0,26.92,52.1Z"/><path class="cls-3" d="M58.61,48.24l-.43,3.1H51.89V64.88H48V48.24Z"/><path class="cls-3" d="M81.65,64.88H77.78V58.66a37.32,37.32,0,0,1,.56-6.55L73.56,64.88H68.83V48.24H72.7v6.34a30.14,30.14,0,0,1-.15,3.31c-.09.88-.24,1.91-.43,3.07L77,48.24h4.66Z"/><path class="cls-3" d="M102.31,64.88V57.75h-5v7.13H93.38V48.24h3.94v6.44h5V48.24h3.94V64.88Z"/><path class="cls-3" d="M117.5,58.83V55.9h7.66v2.93Z"/><path class="cls-3" d="M148.32,48.24V64.88h-3.94V51.22h-3.45l-.63,5.64a25.1,25.1,0,0,1-.85,4.51,5.16,5.16,0,0,1-4.33,3.91l-.94-2.76a2.75,2.75,0,0,0,1.3-.93,4.35,4.35,0,0,0,.65-1.62q.21-1,.48-3.3l1-8.43Z"/><path class="cls-3" d="M178.14,50.12a9.75,9.75,0,0,1,1.91,6.43,11.85,11.85,0,0,1-.85,4.68,6.59,6.59,0,0,1-2.49,3,7.07,7.07,0,0,1-3.91,1,6.43,6.43,0,0,1-5-2,9.06,9.06,0,0,1-2.09-5.53H164v7.08h-3.94V48.24H164v6.48h1.83a8.94,8.94,0,0,1,2.25-5.11,6.37,6.37,0,0,1,4.73-1.77A6.58,6.58,0,0,1,178.14,50.12Zm-3,10.9a9.57,9.57,0,0,0,.77-4.47,9.48,9.48,0,0,0-.78-4.45,2.7,2.7,0,0,0-4.72,0,9.64,9.64,0,0,0-.78,4.49,9.25,9.25,0,0,0,.79,4.42,2.71,2.71,0,0,0,4.72,0Z"/><path class="cls-3" d="M204.12,48.24,200,55.78l4.56,9.1h-4.3l-3.58-7.23H195v7.23H191V48.24H195v6.53h1.82l3.46-6.53Z"/><path class="cls-3" d="M223.76,48.29a7.92,7.92,0,0,1,2.3,1.37l-1.88,2.23a6,6,0,0,0-1.46-.86,4.14,4.14,0,0,0-1.54-.29,3,3,0,0,0-2.65,1.42,7.78,7.78,0,0,0-1,4.36,7.61,7.61,0,0,0,1,4.31,3.1,3.1,0,0,0,2.7,1.41,3.92,3.92,0,0,0,1.66-.35,9.75,9.75,0,0,0,1.61-1l1.75,2.26A7.68,7.68,0,0,1,224,64.68a7.09,7.09,0,0,1-2.94.6,7.75,7.75,0,0,1-4-1,6.81,6.81,0,0,1-2.65-3,11,11,0,0,1-.95-4.77,10.62,10.62,0,0,1,1-4.68,7,7,0,0,1,2.69-3,7.52,7.52,0,0,1,3.9-1A7.89,7.89,0,0,1,223.76,48.29Z"/></g></g></svg>