<?xml version="1.0" encoding="utf-8"?>
<!-- Generator: Adobe Illustrator 22.0.0, SVG Export Plug-In . SVG Version: 6.00 Build 0)  -->
<svg version="1.1" id="Слой_1" xmlns="http://www.w3.org/2000/svg" xmlns:xlink="http://www.w3.org/1999/xlink" x="0px" y="0px"
	 viewBox="0 0 45 21" style="enable-background:new 0 0 45 21;" xml:space="preserve">
<style type="text/css">
	.st0{fill:#FFFFFF;}
	.st1{fill:#7C529E;}
</style>
<g>
	<path class="st0" d="M23,17.6c-3.1,0-6.5,0-9.9-0.2c-0.4,0-0.6,0.1-0.8,0.3c-0.9,1-1.8,2-2.7,2.9c-0.1,0.1-0.3,0.4-0.5,0.3
		C8.9,20.9,9,20.6,9,20.4c0-0.8,0-1.6,0-2.4C9,17.3,8.9,17,8.2,17c-0.9,0-1.8-0.1-2.7-0.3c-3-0.7-5.1-2.3-5.3-5.8
		c-0.1-1.5-0.2-3,0-4.5c0.5-3.1,2.3-4.8,5.4-5.4c4.5-0.7,9-1,13.6-1c4.7-0.1,9.5,0.1,14.2,0.3c2.3,0.1,4.6,0.4,6.8,0.9
		c2.7,0.6,4.5,2.6,4.8,5.4c0.1,1.6,0.2,3.2-0.1,4.8c-0.3,2.1-1.5,3.6-3.5,4.5c-1.7,0.7-3.5,1-5.4,1.1C31.7,17.4,27.5,17.7,23,17.6z"
		/>
	<path class="st1" d="M11.4,13c0.6,0,1.4-0.6,1.6-1.2c0.2-0.6-0.2-0.8-0.6-1.1c-0.2-0.2-0.5-0.4-0.8-0.6c-0.5-0.4-1-0.4-1.4,0.2
		c-0.2,0.3-0.5,0.3-0.8,0.2c-0.9-0.4-1.6-1-2-1.9c-0.2-0.4-0.2-0.8,0.2-1C7.9,7.5,8.1,7.3,8.1,7c0-0.4-1.1-1.9-1.5-2
		C6.5,4.9,6.3,4.9,6.1,5c-0.9,0.3-1.4,1.1-1,2c1.1,2.8,3.2,4.7,5.9,5.9C11.2,13,11.4,13,11.4,13L11.4,13z M9.4,4.8
		C9.3,4.8,9,4.7,9,5c0,0.2,0.2,0.2,0.4,0.2c2,0.3,2.9,1.3,3.2,3.3c0,0.2,0,0.5,0.2,0.5C13.1,9,13,8.7,13,8.6
		C13,6.6,11.3,4.9,9.4,4.8z M24,8.9V6c0-0.6,0.2-1.1,0.9-1.1c0.6,0,0.8,0.5,0.8,1v0.4c0,0.9,0,0.9,0.8,0.7c1.2-0.3,2.3,0.1,2.8,1.2
		c0.7,1.3,0.7,2.5,0,3.8c-0.7,1.3-2.1,1.6-3.4,0.9c-0.2-0.1-0.3-0.2-0.5,0c-0.2,0.3-0.6,0.4-1,0.2c-0.4-0.2-0.5-0.5-0.5-0.9V8.9
		L24,8.9z M28.2,10c0-0.9-0.5-1.6-1.2-1.7c-0.7,0-1.3,0.6-1.3,1.6c0,0.9,0.5,1.6,1.2,1.7C27.6,11.7,28.2,11,28.2,10L28.2,10z
		 M17.7,10.1c0.6-1.5,1-2.7,1.5-4c0.1-0.2,0.1-0.4,0.2-0.6c0.2-0.5,0.6-0.8,1.1-0.6c0.6,0.2,0.7,0.7,0.5,1.2
		c-0.6,1.5-1.2,2.9-1.7,4.4c-0.2,0.6-0.5,1.3-0.7,1.9c-0.1,0.3-0.4,0.6-0.8,0.7c-0.5,0-0.7-0.3-0.9-0.7c-0.8-2.1-1.7-4.2-2.5-6.2
		c-0.2-0.6-0.1-1,0.5-1.3c0.6-0.2,0.9,0.2,1.1,0.7C16.5,7,17.1,8.4,17.7,10.1L17.7,10.1z M33.7,10.5h-1.5c-0.4,0-0.4,0.2-0.2,0.5
		c0.3,0.6,1.2,0.8,2,0.6c0.3-0.1,0.5-0.2,0.8-0.4c0.4-0.2,0.7-0.2,1,0.2c0.3,0.4,0.1,0.8-0.2,1c-1.1,0.8-2.4,1-3.6,0.5
		c-1.2-0.5-1.8-1.6-1.8-2.9c0-1.7,1.1-3,2.6-3.2c1.5-0.1,2.9,0.9,3.2,2.5c0.2,0.9-0.1,1.2-1,1.2L33.7,10.5L33.7,10.5z M33,9.4
		c0.1,0,0.3,0,0.5,0c0.3,0,0.7,0.2,0.8-0.1c0.1-0.4-0.2-0.7-0.6-0.9c-0.5-0.2-0.9-0.2-1.4,0.2c-0.2,0.2-0.5,0.5-0.4,0.8
		c0.1,0.3,0.4,0.1,0.7,0.1C32.7,9.5,32.9,9.4,33,9.4z"/>
	<path class="st1" d="M11.4,13c-0.1,0-0.2,0-0.4-0.1C8.3,11.7,6.3,9.8,5.1,7c-0.4-0.9,0-1.7,1-2c0.2-0.1,0.4-0.1,0.5,0
		c0.4,0.1,1.4,1.6,1.5,2c0,0.3-0.2,0.5-0.4,0.7c-0.4,0.3-0.4,0.6-0.2,1c0.4,0.9,1.1,1.5,2,1.9c0.3,0.1,0.6,0.1,0.8-0.2
		c0.4-0.6,0.9-0.6,1.4-0.2c0.3,0.2,0.5,0.3,0.8,0.6c0.4,0.3,0.8,0.5,0.6,1.1C12.8,12.4,12.1,13,11.4,13L11.4,13z M36.6,9.9V7.8
		c0-0.4,0.1-0.7,0.5-0.8c0.4-0.2,0.8-0.1,1,0.2c0.2,0.3,0.3,0.2,0.5,0c0.2-0.2,0.6-0.3,0.9-0.3c0.4,0.1,0.6,0.3,0.7,0.7
		c0.1,0.4-0.1,0.7-0.4,0.8c-1.4,0.3-1.7,1.3-1.5,2.6c0,0.5,0,0.9,0,1.3c-0.1,0.5-0.4,0.8-0.9,0.8c-0.5,0-0.7-0.4-0.8-0.9
		C36.6,11.5,36.6,10.7,36.6,9.9L36.6,9.9z M21.6,10.2v-2c0-0.6,0.2-0.9,0.8-0.9c0.6,0,0.8,0.3,0.8,0.9v4c0,0.6-0.3,0.9-0.8,0.9
		c-0.6,0-0.8-0.4-0.8-0.9L21.6,10.2L21.6,10.2z M9.4,4.8C11.3,4.9,13,6.6,13,8.6C13,8.7,13.1,9,12.8,9s-0.2-0.3-0.2-0.5
		c-0.2-2-1.2-3-3.2-3.3C9.2,5.2,9,5.2,9,5C9,4.7,9.3,4.8,9.4,4.8L9.4,4.8z M23.4,5.8c-0.1,0.5-0.3,0.9-0.9,0.9
		c-0.5,0-0.9-0.4-0.9-0.9s0.5-1,0.9-0.9C23,5,23.3,5.3,23.4,5.8z"/>
	<path class="st1" d="M12,8.2c0,0.1,0.1,0.4-0.2,0.4c-0.3,0-0.2-0.2-0.3-0.4c-0.2-1.2-0.6-1.7-1.9-2c-0.2,0-0.5,0-0.4-0.3
		c0-0.3,0.3-0.2,0.5-0.1C11,6,12,7,12,8.2L12,8.2z"/>
	<path class="st1" d="M11.1,8c0,0.1,0,0.3-0.2,0.3c-0.1,0-0.2-0.1-0.2-0.2c0-0.5-0.3-0.8-0.8-0.9c-0.1,0-0.3-0.1-0.2-0.3
		c0-0.1,0.2-0.1,0.3-0.1C10.4,6.8,11.1,7.4,11.1,8L11.1,8z"/>
</g>
</svg>
