<svg xmlns="http://www.w3.org/2000/svg" viewBox="0 0 95 45"><defs><style>.cls-1{fill:#7c529e;}.cls-2{fill:#fff;}</style></defs><title>иконка Вайбера большая</title><g id="Слой_2" data-name="Слой 2"><g id="Слой_1-2" data-name="Слой 1"><path class="cls-1" d="M48.65,37.75c-6.6.08-13.79-.07-21-.52A1.88,1.88,0,0,0,26,38c-1.86,2.1-3.71,4.2-5.64,6.3-.29.3-.59.9-1.11.67S19,44.13,19,43.68c0-1.73-.08-3.53,0-5.25.07-1.35-.23-2-1.78-2a36,36,0,0,1-5.64-.67C5.2,34.23.9,30.71.31,23.36a37.62,37.62,0,0,1,0-9.6c1-6.6,4.82-10.35,11.34-11.47A192.34,192.34,0,0,1,40.27,0c10-.15,20,.15,30,.67A93.12,93.12,0,0,1,84.68,2.59,12.5,12.5,0,0,1,94.77,14.21a44.25,44.25,0,0,1-.15,10.35,12,12,0,0,1-7.34,9.67,35,35,0,0,1-11.34,2.4C67,37.3,58.14,37.83,48.65,37.75Z"/><path class="cls-2" d="M24.17,27.93a4.08,4.08,0,0,0,3.34-2.55c.44-1.2-.45-1.72-1.19-2.32-.52-.45-1.11-.83-1.63-1.2-1.11-.83-2.15-.83-3,.45a1.25,1.25,0,0,1-1.78.45,8.44,8.44,0,0,1-4.22-4.13,1.63,1.63,0,0,1,.52-2.25A1.52,1.52,0,0,0,17.13,15c-.08-.9-2.23-4-3.12-4.27a1.43,1.43,0,0,0-1.11,0A3.08,3.08,0,0,0,10.82,15,22.66,22.66,0,0,0,23.28,27.71c.37.15.74.15.89.22Zm-4.3-17.62c-.3.08-1-.22-1,.45,0,.45.52.38.89.45,4.22.68,6.22,2.7,6.74,7.05.08.37-.07,1,.45,1s.44-.6.44-1A8.12,8.12,0,0,0,19.87,10.31Zm30.77,8.85V12.78c0-1.27.44-2.32,1.85-2.32s1.71,1,1.71,2.25v.82c0,2,0,2,1.78,1.43a4.92,4.92,0,0,1,6,2.47,7.92,7.92,0,0,1,0,8.1,4.94,4.94,0,0,1-7.19,1.88c-.44-.3-.59-.45-1,.07a1.6,1.6,0,0,1-2.15.45,2,2,0,0,1-1-2V19.16Zm8.82,2.32c0-2-1.11-3.52-2.59-3.6s-2.75,1.35-2.75,3.38,1.12,3.52,2.6,3.6,2.74-1.35,2.74-3.38Zm-22.17.08c1.19-3.15,2.15-5.78,3.12-8.48a9.25,9.25,0,0,1,.52-1.34c.44-1.05,1.18-1.65,2.37-1.2s1.41,1.42,1,2.62c-1.19,3.15-2.45,6.3-3.64,9.52-.52,1.35-1,2.7-1.55,4a2,2,0,0,1-1.71,1.42,1.83,1.83,0,0,1-1.85-1.5c-1.71-4.42-3.49-8.92-5.19-13.35C30,12,30.18,11,31.51,10.54s1.93.37,2.37,1.5c1,3,2.15,6,3.41,9.52Zm34,1.05H68.06c-.81,0-.89.37-.52,1,.67,1.28,2.6,1.8,4.23,1.2a16.49,16.49,0,0,0,1.7-.82,1.39,1.39,0,0,1,2.08.45A1.46,1.46,0,0,1,75,26.58a7.62,7.62,0,0,1-7.64,1.05c-2.59-1.12-3.7-3.37-3.7-6.15a6.49,6.49,0,0,1,5.56-6.82A6.28,6.28,0,0,1,76,20c.37,1.88-.15,2.55-2.08,2.63Zm1-2.7c.22-.9-.52-1.58-1.26-1.95a2.34,2.34,0,0,0-2.89.37c-.45.45-1,1-.74,1.65S72.14,20.58,72.29,19.91Z"/><path class="cls-2" d="M24.17,27.93c-.22-.08-.52-.08-.89-.22A22.42,22.42,0,0,1,10.82,15a3,3,0,0,1,2.08-4.34,1.43,1.43,0,0,1,1.11,0c.89.3,3,3.37,3.12,4.27.07.67-.45,1.05-.89,1.42a1.62,1.62,0,0,0-.52,2.25,7.93,7.93,0,0,0,4.22,4.13,1.25,1.25,0,0,0,1.78-.45c.82-1.28,1.86-1.2,3-.45a12.91,12.91,0,0,1,1.63,1.2c.74.6,1.63,1.05,1.19,2.32a4.08,4.08,0,0,1-3.34,2.55Zm53-6.67v-4.5a1.82,1.82,0,0,1,1-1.8,1.67,1.67,0,0,1,2.15.37c.44.68.67.38,1,0a2.52,2.52,0,0,1,1.93-.6,1.67,1.67,0,0,1,1.48,1.43c.15.82-.15,1.5-.82,1.65-3,.75-3.48,2.85-3.19,5.55a11.74,11.74,0,0,1-.07,2.85,1.78,1.78,0,1,1-3.56-.15v-4.8Zm-31.58.6V17.58c0-1.2.52-1.95,1.78-1.95s1.7.75,1.7,1.88v8.62c0,1.2-.59,1.95-1.78,1.95s-1.7-.82-1.7-2v-4.2ZM19.87,10.31a8.12,8.12,0,0,1,7.56,8c0,.38.15,1-.44,1s-.45-.6-.45-1c-.52-4.35-2.52-6.37-6.74-7-.37-.07-.89,0-.89-.45.07-.67.66-.37,1-.45Zm29.51,2.18c-.15,1.12-.67,1.87-1.86,1.94a1.89,1.89,0,0,1-2-1.94,2,2,0,0,1,2-2A2.1,2.1,0,0,1,49.38,12.49Z"/><path class="cls-2" d="M25.36,17.58c-.08.3.14.83-.37.9-.67.08-.52-.52-.6-.9-.44-2.62-1.33-3.6-4-4.2-.37-.07-1,0-.89-.6s.67-.37,1-.29a5.34,5.34,0,0,1,4.82,5.09Z"/><path class="cls-2" d="M23.35,17.13c0,.3,0,.68-.44.75s-.45-.22-.52-.52a1.83,1.83,0,0,0-1.78-1.88c-.3-.07-.67-.15-.52-.6s.37-.3.67-.3a2.74,2.74,0,0,1,2.59,2.55Z"/></g></g></svg>