<svg xmlns="http://www.w3.org/2000/svg" viewBox="0 0 35 35"><defs><style>.cls-1{fill:#dc472e;}.cls-2{fill:#fff;}</style></defs><title>иконка Ютуб</title><g id="Слой_2" data-name="Слой 2"><g id="Слой_1-2" data-name="Слой 1"><rect class="cls-1" width="35" height="35"/><path class="cls-2" d="M20.22,22.41a1,1,0,0,0-.09-.39.42.42,0,0,0-.38-.26.65.65,0,0,0-.51.19.35.35,0,0,0-.09.13v4.25l0,.05a.84.84,0,0,0,.44.27.43.43,0,0,0,.56-.34,1.23,1.23,0,0,0,0-.2Zm0,0a1,1,0,0,0-.09-.39.42.42,0,0,0-.38-.26.65.65,0,0,0-.51.19.35.35,0,0,0-.09.13v4.25l0,.05a.84.84,0,0,0,.44.27.43.43,0,0,0,.56-.34,1.23,1.23,0,0,0,0-.2Zm4.64-6.26q-7.37-.15-14.72,0a3.13,3.13,0,0,0-3.06,3.13V27a3.13,3.13,0,0,0,3.06,3.13q7.37.15,14.72,0A3.13,3.13,0,0,0,27.92,27V19.28A3.13,3.13,0,0,0,24.86,16.15ZM11.58,27.64H10.17v-8H8.7V18.31h4.35v1.33H11.58Zm5.06-3.31v3.32H15.39v-.76l-.09.1a2.31,2.31,0,0,1-1,.69,1.17,1.17,0,0,1-.59.05.7.7,0,0,1-.56-.45,1.62,1.62,0,0,1-.13-.72c0-.92,0-5.75,0-5.8H14.3V26a1.32,1.32,0,0,0,0,.28.31.31,0,0,0,.44.24,1.42,1.42,0,0,0,.61-.47.27.27,0,0,0,0-.13V20.75h1.25ZM21.41,27a1,1,0,0,1-1.07.76,1.42,1.42,0,0,1-1.06-.49l-.13-.13v.52H17.9V18.31h1.25v3.07a1,1,0,0,1,.14-.21,1.38,1.38,0,0,1,.72-.46,1.09,1.09,0,0,1,1.3.59,2.37,2.37,0,0,1,.2,1.05v3.91A2.16,2.16,0,0,1,21.41,27ZM26,26.72a1.52,1.52,0,0,1-1.32,1.09,2.06,2.06,0,0,1-1.2-.13,1.66,1.66,0,0,1-.95-1.21,3.31,3.31,0,0,1-.09-.77c0-1,0-2.05,0-3.07A2.09,2.09,0,0,1,23,21.19a1.83,1.83,0,0,1,1.57-.6,2,2,0,0,1,.54.1,1.53,1.53,0,0,1,1,1.23,5.2,5.2,0,0,1,.07.69c0,.55,0,1.75,0,1.75h-2.4v1.72a.56.56,0,1,0,1.12,0V25.2h1.29A6,6,0,0,1,26,26.72Zm-1.14-4.4a.56.56,0,1,0-1.12,0v1H24.9ZM20.13,22a.42.42,0,0,0-.38-.26.65.65,0,0,0-.51.19.35.35,0,0,0-.09.13v4.25l0,.05a.84.84,0,0,0,.44.27.43.43,0,0,0,.56-.33,1.49,1.49,0,0,0,0-.21v-3.7A1,1,0,0,0,20.13,22Z"/><path class="cls-2" d="M23.34,7.3v6.93H22.05v-.75l-.4.39a1.7,1.7,0,0,1-.82.42.8.8,0,0,1-1-.55,1.88,1.88,0,0,1-.08-.52V7.3H21v5.28a1.49,1.49,0,0,0,0,.21.29.29,0,0,0,.41.25,1.45,1.45,0,0,0,.62-.48s0-.08,0-.13V7.3Z"/><path class="cls-2" d="M12.72,8.5l-.87-3.66H10.39S11.51,8.57,12,10.23a.58.58,0,0,1,0,.19v3.8h1.35v-3.8a.58.58,0,0,1,0-.19L15,4.84H13.58S13,7.32,12.72,8.5Z"/><path class="cls-2" d="M16.8,7.12h0A1.84,1.84,0,0,0,15,9v3.6A1.84,1.84,0,0,0,16.8,14.4h0a1.84,1.84,0,0,0,1.84-1.84V9A1.84,1.84,0,0,0,16.8,7.12Zm.53,5.51a.53.53,0,0,1-1.06,0V8.89a.53.53,0,0,1,1.06,0Z"/></g></g></svg>