<svg xmlns="http://www.w3.org/2000/svg" viewBox="0 0 1174.51 51.47"><title>главная стрелка 2</title><rect y="22.73" width="476.8" height="2" fill="#e2e2e2"/><path d="M465.13,15.09a3.89,3.89,0,0,0,0,5.27l12,12.64-12,12.64a3.89,3.89,0,0,0,0,5.27,3.41,3.41,0,0,0,5,0l14.45-15.27a3.91,3.91,0,0,0,0-5.28L470.12,15.09A3.41,3.41,0,0,0,465.13,15.09Z" transform="translate(0 -9.66)" fill="#fedd55"/><path d="M563.46,11a22.47,22.47,0,0,1,6.62,4l-5.41,6.58a17.91,17.91,0,0,0-4.22-2.55,11.78,11.78,0,0,0-4.44-.85,8.75,8.75,0,0,0-7.65,4.18q-2.8,4.17-2.81,12.89,0,8.56,2.81,12.7a8.89,8.89,0,0,0,7.79,4.15,11,11,0,0,0,4.78-1,26.15,26.15,0,0,0,4.64-2.94l5.06,6.66a21.73,21.73,0,0,1-6.55,4.53,20,20,0,0,1-8.48,1.77,22,22,0,0,1-11.57-3,19.78,19.78,0,0,1-7.65-8.82,32.82,32.82,0,0,1-2.74-14.05,31.45,31.45,0,0,1,2.8-13.81,20.4,20.4,0,0,1,7.76-8.82,21.32,21.32,0,0,1,11.26-3A22.1,22.1,0,0,1,563.46,11Z" transform="translate(0 -9.66)" fill="#f5f1ef"/><path d="M633.09,16.39q5.71,6.74,5.71,19a33.62,33.62,0,0,1-2.59,13.8,19.71,19.71,0,0,1-7.49,8.89,23.43,23.43,0,0,1-23.17,0,19.47,19.47,0,0,1-7.44-8.81,33.63,33.63,0,0,1-2.6-13.91,33.29,33.29,0,0,1,2.6-13.74,19.79,19.79,0,0,1,7.44-8.89,21.15,21.15,0,0,1,11.57-3.08Q627.38,9.66,633.09,16.39Zm-23.28,5.84c-1.59,2.72-2.39,7.09-2.39,13.14s.81,10.43,2.43,13.17a8.61,8.61,0,0,0,14.65,0q2.38-4.07,2.39-13.2T624.46,22.2a8.64,8.64,0,0,0-14.65,0Z" transform="translate(0 -9.66)" fill="#f5f1ef"/><path d="M699.74,10.87,698.49,20H680.34V59.94H669V10.87Z" transform="translate(0 -9.66)" fill="#f5f1ef"/><path d="M765.13,59.94H754V41.6a112.38,112.38,0,0,1,1.6-19.33L741.78,59.94H728.13V10.87h11.16V29.56a93.73,93.73,0,0,1-.42,9.77c-.28,2.6-.69,5.62-1.25,9.06l14.07-37.52h13.44Z" transform="translate(0 -9.66)" fill="#f5f1ef"/><path d="M823.13,59.94v-21h-14.4v21H797.37V10.87h11.36v19h14.4v-19H834.5V59.94Z" transform="translate(0 -9.66)" fill="#f5f1ef"/><path d="M866,42.09V33.45h22.1v8.64Z" transform="translate(0 -9.66)" fill="#f5f1ef"/><path d="M954.55,10.87V59.94H943.19V19.65h-10l-1.8,16.64A79.1,79.1,0,0,1,929,49.6a17.28,17.28,0,0,1-4.4,7.64,16.62,16.62,0,0,1-8.11,3.9L913.75,53a8,8,0,0,0,3.74-2.76,12.76,12.76,0,0,0,1.87-4.78c.42-2,.88-5.25,1.39-9.74l2.91-24.85Z" transform="translate(0 -9.66)" fill="#f5f1ef"/><path d="M1039,16.39q5.5,6.74,5.51,19a35.23,35.23,0,0,1-2.46,13.8,19.24,19.24,0,0,1-7.17,8.89,20.21,20.21,0,0,1-11.29,3.08q-9.15,0-14.34-5.77t-6-16.32h-5.06V59.94H986.75V10.87h11.36V30h5.27q1.46-9.85,6.51-15.09t13.65-5.24Q1033.44,9.66,1039,16.39Zm-8.55,32.18q2.2-4.07,2.21-13.2c0-6-.75-10.42-2.25-13.14a7.74,7.74,0,0,0-13.65,0q-2.25,4.11-2.25,13.24t2.29,13.06a7.76,7.76,0,0,0,13.65,0Z" transform="translate(0 -9.66)" fill="#f5f1ef"/><path d="M1112.39,10.87,1100.54,33.1l13.17,26.84h-12.4L1091,38.62h-5V59.94h-11.37V10.87H1086V30.13h5.26l10-19.26Z" transform="translate(0 -9.66)" fill="#f5f1ef"/><path d="M1167.34,11a22.3,22.3,0,0,1,6.61,4l-5.4,6.58a17.76,17.76,0,0,0-4.23-2.55,11.69,11.69,0,0,0-4.43-.85,8.75,8.75,0,0,0-7.65,4.18q-2.81,4.17-2.81,12.89,0,8.56,2.81,12.7a8.88,8.88,0,0,0,7.79,4.15,11,11,0,0,0,4.78-1,26.15,26.15,0,0,0,4.64-2.94l5.06,6.66a21.85,21.85,0,0,1-6.55,4.53,20,20,0,0,1-8.49,1.77,21.9,21.9,0,0,1-11.56-3,19.86,19.86,0,0,1-7.66-8.82,33,33,0,0,1-2.74-14.05,31.45,31.45,0,0,1,2.81-13.81,20.4,20.4,0,0,1,7.76-8.82,21.29,21.29,0,0,1,11.26-3A22.14,22.14,0,0,1,1167.34,11Z" transform="translate(0 -9.66)" fill="#f5f1ef"/></svg>