<svg xmlns="http://www.w3.org/2000/svg" viewBox="0 0 35 35"><defs><style>.cls-1{fill:#eb722e;}.cls-2{fill:#fff;}</style></defs><title>иконка Одноклассники</title><g id="Слой_2" data-name="Слой 2"><g id="Слой_1-2" data-name="Слой 1"><path class="cls-1" d="M0,35H35V0H0Z"/><path class="cls-2" d="M17.5,9a2.62,2.62,0,1,1-2.62,2.62A2.62,2.62,0,0,1,17.5,9Zm0,8.94a6.33,6.33,0,1,0-6.33-6.32,6.33,6.33,0,0,0,6.33,6.32m2.56,5.17a11.72,11.72,0,0,0,3.67-1.53,1.85,1.85,0,1,0-2-3.14h0a8.05,8.05,0,0,1-8.52,0,1.84,1.84,0,0,0-2.55.58h0a1.85,1.85,0,0,0,.58,2.55,11.87,11.87,0,0,0,3.68,1.53L11.4,26.59A1.86,1.86,0,1,0,14,29.22h0l3.48-3.48L21,29.22a1.85,1.85,0,0,0,2.61,0h0a1.86,1.86,0,0,0,0-2.62h0l-3.54-3.54"/></g></g></svg>