<svg xmlns="http://www.w3.org/2000/svg" viewBox="0 0 35 35"><title>иконка ВКонтакте</title><rect width="35" height="35" fill="#4c75a3"/><path d="M18.67,24.24a.77.77,0,0,0,.85-.88s0-1.92.87-2.2,2,1.85,3.2,2.67a2.15,2.15,0,0,0,1.59.47l3.2,0s1.68-.11.88-1.42a10.48,10.48,0,0,0-2.38-2.75c-2-1.86-1.73-1.56.68-4.78,1.47-2,2.06-3.16,1.88-3.67s-1.26-.36-1.26-.36h-3.6a1,1,0,0,0-.46.12.92.92,0,0,0-.32.38,20.8,20.8,0,0,1-1.33,2.81c-1.61,2.73-2.25,2.87-2.51,2.7-.61-.39-.46-1.58-.46-2.43,0-2.64.4-3.74-.78-4A5.88,5.88,0,0,0,17,10.67a7.68,7.68,0,0,0-3,.31c-.41.2-.72.64-.53.67a1.62,1.62,0,0,1,1.06.53,3.5,3.5,0,0,1,.36,1.63s.21,3.11-.5,3.5c-.48.26-1.15-.28-2.58-2.75a23.41,23.41,0,0,1-1.28-2.66,1.1,1.1,0,0,0-.3-.41.94.94,0,0,0-.55-.15l-3.43,0s-.51,0-.7.24,0,.61,0,.61,2.68,6.27,5.71,9.42a8.21,8.21,0,0,0,5.94,2.71" fill="#fff"/></svg>