<svg xmlns="http://www.w3.org/2000/svg" xmlns:xlink="http://www.w3.org/1999/xlink" viewBox="0 0 35 35"><defs><radialGradient id="a" cx="-6.13" cy="4.53" r="11.39" gradientTransform="matrix(2.83, 0, 0, -3.52, 41.59, 49.05)" gradientUnits="userSpaceOnUse"><stop offset="0.09" stop-color="#fa8f21"/><stop offset="0.78" stop-color="#d82d7e"/></radialGradient><radialGradient id="b" cx="-6.13" cy="4.53" r="11.39" gradientTransform="matrix(2.83, 0, 0, -3.52, 41.59, 49.05)" gradientUnits="userSpaceOnUse"><stop offset="0.64" stop-color="#8c3aaa" stop-opacity="0"/><stop offset="1" stop-color="#8c3aaa"/></radialGradient></defs><title>иконка инстаграма</title><rect width="35" height="35" fill="url(#a)"/><rect width="35" height="35" fill="url(#b)"/><path d="M13.17,17.5a4.34,4.34,0,1,1,4.33,4.33,4.33,4.33,0,0,1-4.33-4.33m-2.35,0a6.68,6.68,0,1,0,6.68-6.68,6.68,6.68,0,0,0-6.68,6.68m12.06-6.94A1.56,1.56,0,1,0,24.44,9h0a1.56,1.56,0,0,0-1.56,1.56M12.25,28.08a7,7,0,0,1-2.42-.44,4,4,0,0,1-1.49-1,4,4,0,0,1-1-1.49,7.3,7.3,0,0,1-.44-2.42c-.07-1.37-.08-1.78-.08-5.25s0-3.88.08-5.25a7.57,7.57,0,0,1,.44-2.42,4,4,0,0,1,1-1.49,4,4,0,0,1,1.49-1,7,7,0,0,1,2.42-.44c1.37-.07,1.78-.08,5.25-.08s3.88,0,5.26.08a7.28,7.28,0,0,1,2.41.44,4.33,4.33,0,0,1,2.47,2.47,7.22,7.22,0,0,1,.45,2.42c.06,1.37.07,1.78.07,5.25s0,3.88-.07,5.26a7.21,7.21,0,0,1-.45,2.41,4.33,4.33,0,0,1-2.47,2.47,7,7,0,0,1-2.41.44c-1.38.07-1.79.08-5.26.08s-3.88,0-5.25-.08m-.11-23.5A9.57,9.57,0,0,0,9,5.18,6.66,6.66,0,0,0,5.18,9a9.57,9.57,0,0,0-.6,3.16C4.51,13.53,4.5,14,4.5,17.5s0,4,.08,5.36A9.52,9.52,0,0,0,5.18,26,6.66,6.66,0,0,0,9,29.82a9.57,9.57,0,0,0,3.16.6c1.39.07,1.83.08,5.36.08s4,0,5.36-.08a9.52,9.52,0,0,0,3.16-.6,6.66,6.66,0,0,0,3.8-3.8,9.57,9.57,0,0,0,.6-3.16c.07-1.39.08-1.83.08-5.36s0-4-.08-5.36A9.52,9.52,0,0,0,29.82,9,6.66,6.66,0,0,0,26,5.18a9.52,9.52,0,0,0-3.16-.6C21.48,4.51,21,4.5,17.5,4.5s-4,0-5.36.08" fill="#fff"/></svg>