<svg xmlns="http://www.w3.org/2000/svg" viewBox="0 0 124.69 21.57"><defs><style>.cls-1{fill:#128c87;}</style></defs><title>логотип студии</title><g id="Слой_2" data-name="Слой 2"><g id="Слой_1-2" data-name="Слой 1"><path class="cls-1" d="M51.72,7.67l-.46-.4-2.61-3L47.54,5V6.94l1,0-.05.71H45.66l0-.71.94,0V.7l-.95,0,0-.66h2.72V.61l-.83,0V4.06l1.09-.73L51.07.61l-.52,0V0h2.7V.71L52,.74,49.4,3.63,52.29,7h1.28l0,.71Z"/><path class="cls-1" d="M54.15,4.67c0-1.92,1-3.07,2.92-3.07S60,2.75,60,4.67s-1,3.16-2.93,3.16S54.15,6.59,54.15,4.67Zm4.87,0c0-1.5-.59-2.38-2-2.38s-1.94.9-1.94,2.38.6,2.46,1.94,2.46S59,6.18,59,4.68Z"/><path class="cls-1" d="M61,2.48l0-.71h2l2.07,5.08,2.11-5.08h1.94v.71l-.69,0L68.5,7l.71,0,0,.66H67.67l-.06-4.38V2.83h0L65.52,7.67h-.91L62.47,2.84V3l-.1,4L63,7,63,7.67h-2l0-.71.68,0,.19-4.45,0,0Z"/><path class="cls-1" d="M75,7.67V2.51H72V7l.71,0,0,.66H70.36l0-.71.71,0V2.51l-.7,0,0-.71H76.6v.71l-.65,0V7l.7,0,0,.66Z"/><path class="cls-1" d="M81.45,7.67l0-.71.69,0V2.51H80.17c-.09,3.81-1.08,5.38-2.65,5.16V7c1.07.11,1.73-1.13,1.81-4.45l-1,0,.05-.73h4.67V7l.71,0,0,.66Z"/><path class="cls-1" d="M85.54,4.89c.07,1.5.85,2.22,2.07,2.22a2.26,2.26,0,0,0,1.77-.78l.45.49a2.66,2.66,0,0,1-2.25,1,2.8,2.8,0,0,1-3-3.12c0-2,1.12-3.11,2.82-3.11a2.24,2.24,0,0,1,2.46,2.56,2,2,0,0,1-.14.73Zm0-.64H89s0-.16,0-.28c0-1.1-.53-1.67-1.59-1.67S85.66,3,85.56,4.25Z"/><path class="cls-1" d="M91,7.67l0-.71.71,0V2.51l-.79,0,.05-.71h1.68V4.41l.86-.4,1.24-1.58-.36,0,0-.64h2.21v.71l-1,.09L94,4.33,95.92,6.9H97l0,.76H95.49L95,7.17,93.25,4.78l-.7.32V7l.62,0,0,.62Z"/><path class="cls-1" d="M101.8,3.72l-.06-.84a1.73,1.73,0,0,0-1.27-.58c-1.3,0-1.91.66-1.91,2.35s.79,2.49,2,2.49a2.39,2.39,0,0,0,1.71-.71l.42.47a2.62,2.62,0,0,1-2.22.93c-1.89,0-2.93-1.13-2.93-3.17s1-3.06,2.75-3.06a2.42,2.42,0,0,1,1.46.58l.13-.47h.61v2Z"/><path class="cls-1" d="M103.71,7.67l0-.71.71,0V2.51l-.7,0,0-.71h1.6V4.28h3.14V2.37l-.6,0V1.77H110v.71l-.65,0V7l.71,0,0,.66h-1.6V5h-3.14V7.07l.62,0,0,.58Z"/><path class="cls-1" d="M111,4.67c0-1.92,1-3.07,2.92-3.07s2.93,1.15,2.93,3.07-1,3.16-2.93,3.16S111,6.59,111,4.67Zm4.87,0c0-1.5-.59-2.38-2-2.38S112,3.2,112,4.68s.6,2.46,1.94,2.46S115.86,6.18,115.86,4.68Z"/><path class="cls-1" d="M118.88,4.89c.07,1.5.85,2.22,2.06,2.22a2.26,2.26,0,0,0,1.77-.78l.45.49a2.66,2.66,0,0,1-2.24,1,2.8,2.8,0,0,1-3-3.12c0-2,1.12-3.11,2.82-3.11a2.25,2.25,0,0,1,2.47,2.56,2,2,0,0,1-.14.73Zm0-.64h3.45a2.76,2.76,0,0,0,0-.28c0-1.1-.53-1.67-1.6-1.67S119,3,118.89,4.25Z"/><path class="cls-1" d="M50.23,18.62V13.47h-3v4.46l.71,0,0,.66H45.6l-.05-.71.71,0V13.47l-.7,0,0-.71h6.24v.71l-.65,0v4.46l.71,0,0,.66Z"/><path class="cls-1" d="M53,21.57l0-.71.7,0V13.47l-.69,0,0-.71h1.49l.08.66a2.41,2.41,0,0,1,2-.82,2.52,2.52,0,0,1,2.66,2.83c0,1.93-1,3.4-2.79,3.4a2.52,2.52,0,0,1-1.8-.57v2.65l.71,0-.05.66Zm1.61-7.45v3.42a2,2,0,0,0,1.48.53c1.5,0,2.13-1.06,2.13-2.66s-.73-2.12-2-2.12A1.86,1.86,0,0,0,54.57,14.12Z"/><path class="cls-1" d="M60.25,15.63c0-1.93,1-3.07,2.92-3.07s2.93,1.14,2.93,3.07-1,3.16-2.93,3.16S60.25,17.55,60.25,15.63Zm4.87,0c0-1.5-.59-2.39-2-2.39s-2,.9-2,2.39.61,2.45,2,2.45S65.12,17.14,65.12,15.64Z"/><path class="cls-1" d="M66.82,20.36l0-2.46h.9a9.51,9.51,0,0,0,.87-4.41l-1,0,0-.74h4.88V17.9h1l-.06,2.46h-.73l-.1-1.74h-5l-.08,1.74Zm1.7-2.46h3V13.44H69.3A11.1,11.1,0,0,1,68.52,17.9Z"/><path class="cls-1" d="M74.41,18.62l0-.71.7,0V13.47l-.69,0,0-.71h2.92c1.74,0,2.25.55,2.25,1.47a1.5,1.5,0,0,1-1,1.33c.7.16,1.31.55,1.31,1.28,0,1-.59,1.82-2.56,1.82Zm3.11-3.27s1.15-.11,1.15-1c0-.59-.3-.93-1.35-.93H76v2ZM76,15.84V18h1.3c1.38,0,1.64-.63,1.64-1.24s-.43-.89-1.48-.89Z"/><path class="cls-1" d="M85,18.62V18l.66-.07V14l-3.56,4.66h-.7V13.47l-.69,0,0-.71h1.61v4.46l3.38-4.46h1.58v.71l-.69,0v4.46l.7,0,0,.66Z"/><path class="cls-1" d="M91.85,18.62l0-.61.63,0v-2h-.86l-1.49,2.25-.4.45H88.23V18l.94,0,1.62-2.37-1.3-2.11-.95,0,0-.71h1.83v.65l1,1.85h1V13.33l-.64,0,0-.57h1.51v2.5h.91l1.09-1.75H95l.06-.74h2.13v.71l-.86,0L95,15.55l1.61,2.39,1,0,0,.66H96.08l-.42-.49-1.43-2.21h-.88V18h.58l-.05.59Z"/><path class="cls-1" d="M99.07,15.85c.07,1.5.85,2.22,2.06,2.22a2.26,2.26,0,0,0,1.77-.78l.45.48a2.65,2.65,0,0,1-2.24,1,2.8,2.8,0,0,1-3-3.13c0-2,1.12-3.1,2.82-3.1a2.25,2.25,0,0,1,2.47,2.56,2,2,0,0,1-.14.73Zm0-.65h3.46s0-.15,0-.27c0-1.11-.53-1.68-1.59-1.68S99.19,14,99.08,15.2Z"/><path class="cls-1" d="M104.47,18.62l0-.71.71,0V13.47l-.7,0,0-.71h1.61v2.52h3.14V13.33l-.61,0v-.57h2.2v.71l-.65,0v4.46l.71,0-.05.66h-1.6V15.93h-3.14V18l.61,0,0,.58Z"/><path class="cls-1" d="M116.2,18.62V18l.66-.07V14l-3.56,4.66h-.7V13.47l-.7,0,0-.71h1.6v4.46l3.39-4.46h1.58v.71l-.7,0v4.46l.71,0,0,.66Z"/><path class="cls-1" d="M120.35,15.85c.07,1.5.85,2.22,2.07,2.22a2.23,2.23,0,0,0,1.76-.78l.45.48a2.65,2.65,0,0,1-2.24,1,2.79,2.79,0,0,1-3-3.13c0-2,1.12-3.1,2.82-3.1a2.24,2.24,0,0,1,2.46,2.56,2,2,0,0,1-.14.73Zm0-.65h3.46s0-.15,0-.27c0-1.11-.53-1.68-1.59-1.68S120.47,14,120.36,15.2Z"/><path class="cls-1" d="M19.87,6.36a2.79,2.79,0,0,0-2.67,0c-.87.47-1.14,1.54-1.14,3,0,2.14.54,3.55,2.48,3.55S21,11.51,21,9.37C21,7.9,20.74,6.83,19.87,6.36Z"/><path class="cls-1" d="M34.53,4.28l.13,1.41h4.82V0H0V6.36H4.55L5,4.22H7.16v10l-2.34.2.27,3.68H15.53l.2-2.21a6.27,6.27,0,0,1-5.22-6.49c0-4.15,2.87-6.56,8.09-6.56a18,18,0,0,1,2.88.34c3.35.73,5.22,2.94,5.22,6.22a6.43,6.43,0,0,1-5.15,6.42l.2,2.28h11l.27-3.48-3-.14V11.58h7.22V7.63H30.05V4.28Z"/></g></g></svg>