<svg xmlns="http://www.w3.org/2000/svg" viewBox="0 0 8 7"><defs><style>.cls-1{fill:#747474;}</style></defs><title>Хлебные крошки стрелка_1</title><g id="Слой_2" data-name="Слой 2"><g id="Layer_1" data-name="Layer 1"><path class="cls-1" d="M7.55,2.84H2.21L3.89,1.07A.51.51,0,0,0,4,.74.49.49,0,0,0,3.89.41L3.63.13A.43.43,0,0,0,3,.13l-2.88,3a.48.48,0,0,0,0,.66L3,6.87a.43.43,0,0,0,.62,0l.26-.28A.49.49,0,0,0,4,6.26a.48.48,0,0,0-.13-.32L2.19,4.16H7.56A.46.46,0,0,0,8,3.69v-.4A.45.45,0,0,0,7.55,2.84Z"/></g></g></svg>